# Tiled2Unity generated file. Do not modify by hand.
# Wavefront file for 'BAR1.1_mesh_0007.obj'

# Vertices (Count = 624)
v -27 -1 0
v -28 -1 0
v -28 0 0
v -27 0 0
v -28 -1 0
v -29 -1 0
v -29 0 0
v -28 0 0
v -29 -1 0
v -30 -1 0
v -30 0 0
v -29 0 0
v -27 -2 0
v -28 -2 0
v -28 -1 0
v -27 -1 0
v -28 -2 0
v -29 -2 0
v -29 -1 0
v -28 -1 0
v -29 -2 0
v -30 -2 0
v -30 -1 0
v -29 -1 0
v -2 -3 0
v -3 -3 0
v -3 -2 0
v -2 -2 0
v -3 -3 0
v -4 -3 0
v -4 -2 0
v -3 -2 0
v -14 -3 0
v -15 -3 0
v -15 -2 0
v -14 -2 0
v -15 -3 0
v -16 -3 0
v -16 -2 0
v -15 -2 0
v -2 -4 0
v -3 -4 0
v -3 -3 0
v -2 -3 0
v -3 -4 0
v -4 -4 0
v -4 -3 0
v -3 -3 0
v -14 -4 0
v -15 -4 0
v -15 -3 0
v -14 -3 0
v -15 -4 0
v -16 -4 0
v -16 -3 0
v -15 -3 0
v -2 -5 0
v -3 -5 0
v -3 -4 0
v -2 -4 0
v -3 -5 0
v -4 -5 0
v -4 -4 0
v -3 -4 0
v -4 -5 0
v -5 -5 0
v -5 -4 0
v -4 -4 0
v -5 -5 0
v -6 -5 0
v -6 -4 0
v -5 -4 0
v -6 -5 0
v -7 -5 0
v -7 -4 0
v -6 -4 0
v -7 -5 0
v -8 -5 0
v -8 -4 0
v -7 -4 0
v -8 -5 0
v -9 -5 0
v -9 -4 0
v -8 -4 0
v -9 -5 0
v -10 -5 0
v -10 -4 0
v -9 -4 0
v -10 -5 0
v -11 -5 0
v -11 -4 0
v -10 -4 0
v -11 -5 0
v -12 -5 0
v -12 -4 0
v -11 -4 0
v -12 -5 0
v -13 -5 0
v -13 -4 0
v -12 -4 0
v -13 -5 0
v -14 -5 0
v -14 -4 0
v -13 -4 0
v -14 -5 0
v -15 -5 0
v -15 -4 0
v -14 -4 0
v -15 -5 0
v -16 -5 0
v -16 -4 0
v -15 -4 0
v -2 -6 0
v -3 -6 0
v -3 -5 0
v -2 -5 0
v -3 -6 0
v -4 -6 0
v -4 -5 0
v -3 -5 0
v -4 -6 0
v -5 -6 0
v -5 -5 0
v -4 -5 0
v -5 -6 0
v -6 -6 0
v -6 -5 0
v -5 -5 0
v -6 -6 0
v -7 -6 0
v -7 -5 0
v -6 -5 0
v -7 -6 0
v -8 -6 0
v -8 -5 0
v -7 -5 0
v -8 -6 0
v -9 -6 0
v -9 -5 0
v -8 -5 0
v -9 -6 0
v -10 -6 0
v -10 -5 0
v -9 -5 0
v -10 -6 0
v -11 -6 0
v -11 -5 0
v -10 -5 0
v -11 -6 0
v -12 -6 0
v -12 -5 0
v -11 -5 0
v -12 -6 0
v -13 -6 0
v -13 -5 0
v -12 -5 0
v -13 -6 0
v -14 -6 0
v -14 -5 0
v -13 -5 0
v -14 -6 0
v -15 -6 0
v -15 -5 0
v -14 -5 0
v -15 -6 0
v -16 -6 0
v -16 -5 0
v -15 -5 0
v 0 -11 0
v -1 -11 0
v -1 -10 0
v 0 -10 0
v -28 -11 0
v -29 -11 0
v -29 -10 0
v -28 -10 0
v -29 -11 0
v -30 -11 0
v -30 -10 0
v -29 -10 0
v 0 -12 0
v -1 -12 0
v -1 -11 0
v 0 -11 0
v -27 -12 0
v -28 -12 0
v -28 -11 0
v -27 -11 0
v -28 -12 0
v -29 -12 0
v -29 -11 0
v -28 -11 0
v -29 -12 0
v -30 -12 0
v -30 -11 0
v -29 -11 0
v -30 -12 0
v -31 -12 0
v -31 -11 0
v -30 -11 0
v -1 -13 0
v -2 -13 0
v -2 -12 0
v -1 -12 0
v -2 -13 0
v -3 -13 0
v -3 -12 0
v -2 -12 0
v -28 -13 0
v -29 -13 0
v -29 -12 0
v -28 -12 0
v -29 -13 0
v -30 -13 0
v -30 -12 0
v -29 -12 0
v -30 -13 0
v -31 -13 0
v -31 -12 0
v -30 -12 0
v 0 -14 0
v -1 -14 0
v -1 -13 0
v 0 -13 0
v -1 -14 0
v -2 -14 0
v -2 -13 0
v -1 -13 0
v -2 -14 0
v -3 -14 0
v -3 -13 0
v -2 -13 0
v -3 -14 0
v -4 -14 0
v -4 -13 0
v -3 -13 0
v -13 -14 0
v -14 -14 0
v -14 -13 0
v -13 -13 0
v -28 -14 0
v -29 -14 0
v -29 -13 0
v -28 -13 0
v -29 -14 0
v -30 -14 0
v -30 -13 0
v -29 -13 0
v -30 -14 0
v -31 -14 0
v -31 -13 0
v -30 -13 0
v -31 -14 0
v -32 -14 0
v -32 -13 0
v -31 -13 0
v 0 -15 0
v -1 -15 0
v -1 -14 0
v 0 -14 0
v -1 -15 0
v -2 -15 0
v -2 -14 0
v -1 -14 0
v -2 -15 0
v -3 -15 0
v -3 -14 0
v -2 -14 0
v -3 -15 0
v -4 -15 0
v -4 -14 0
v -3 -14 0
v -5 -15 0
v -6 -15 0
v -6 -14 0
v -5 -14 0
v -6 -15 0
v -7 -15 0
v -7 -14 0
v -6 -14 0
v -7 -15 0
v -8 -15 0
v -8 -14 0
v -7 -14 0
v -8 -15 0
v -9 -15 0
v -9 -14 0
v -8 -14 0
v -9 -15 0
v -10 -15 0
v -10 -14 0
v -9 -14 0
v -10 -15 0
v -11 -15 0
v -11 -14 0
v -10 -14 0
v -18 -15 0
v -19 -15 0
v -19 -14 0
v -18 -14 0
v -19 -15 0
v -20 -15 0
v -20 -14 0
v -19 -14 0
v -20 -15 0
v -21 -15 0
v -21 -14 0
v -20 -14 0
v -21 -15 0
v -22 -15 0
v -22 -14 0
v -21 -14 0
v -22 -15 0
v -23 -15 0
v -23 -14 0
v -22 -14 0
v -23 -15 0
v -24 -15 0
v -24 -14 0
v -23 -14 0
v -28 -15 0
v -29 -15 0
v -29 -14 0
v -28 -14 0
v -29 -15 0
v -30 -15 0
v -30 -14 0
v -29 -14 0
v -30 -15 0
v -31 -15 0
v -31 -14 0
v -30 -14 0
v -31 -15 0
v -32 -15 0
v -32 -14 0
v -31 -14 0
v -1 -16 0
v -2 -16 0
v -2 -15 0
v -1 -15 0
v -2 -16 0
v -3 -16 0
v -3 -15 0
v -2 -15 0
v -5 -16 0
v -6 -16 0
v -6 -15 0
v -5 -15 0
v -6 -16 0
v -7 -16 0
v -7 -15 0
v -6 -15 0
v -7 -16 0
v -8 -16 0
v -8 -15 0
v -7 -15 0
v -8 -16 0
v -9 -16 0
v -9 -15 0
v -8 -15 0
v -9 -16 0
v -10 -16 0
v -10 -15 0
v -9 -15 0
v -10 -16 0
v -11 -16 0
v -11 -15 0
v -10 -15 0
v -13 -16 0
v -14 -16 0
v -14 -15 0
v -13 -15 0
v -14 -16 0
v -15 -16 0
v -15 -15 0
v -14 -15 0
v -15 -16 0
v -16 -16 0
v -16 -15 0
v -15 -15 0
v -18 -16 0
v -19 -16 0
v -19 -15 0
v -18 -15 0
v -19 -16 0
v -20 -16 0
v -20 -15 0
v -19 -15 0
v -20 -16 0
v -21 -16 0
v -21 -15 0
v -20 -15 0
v -21 -16 0
v -22 -16 0
v -22 -15 0
v -21 -15 0
v -22 -16 0
v -23 -16 0
v -23 -15 0
v -22 -15 0
v -23 -16 0
v -24 -16 0
v -24 -15 0
v -23 -15 0
v -25 -16 0
v -26 -16 0
v -26 -15 0
v -25 -15 0
v -26 -16 0
v -27 -16 0
v -27 -15 0
v -26 -15 0
v -27 -16 0
v -28 -16 0
v -28 -15 0
v -27 -15 0
v -28 -16 0
v -29 -16 0
v -29 -15 0
v -28 -15 0
v -29 -16 0
v -30 -16 0
v -30 -15 0
v -29 -15 0
v -30 -16 0
v -31 -16 0
v -31 -15 0
v -30 -15 0
v -31 -16 0
v -32 -16 0
v -32 -15 0
v -31 -15 0
v 0 -17 0
v -1 -17 0
v -1 -16 0
v 0 -16 0
v -1 -17 0
v -2 -17 0
v -2 -16 0
v -1 -16 0
v -2 -17 0
v -3 -17 0
v -3 -16 0
v -2 -16 0
v -3 -17 0
v -4 -17 0
v -4 -16 0
v -3 -16 0
v -4 -17 0
v -5 -17 0
v -5 -16 0
v -4 -16 0
v -5 -17 0
v -6 -17 0
v -6 -16 0
v -5 -16 0
v -6 -17 0
v -7 -17 0
v -7 -16 0
v -6 -16 0
v -7 -17 0
v -8 -17 0
v -8 -16 0
v -7 -16 0
v -8 -17 0
v -9 -17 0
v -9 -16 0
v -8 -16 0
v -9 -17 0
v -10 -17 0
v -10 -16 0
v -9 -16 0
v -10 -17 0
v -11 -17 0
v -11 -16 0
v -10 -16 0
v -13 -17 0
v -14 -17 0
v -14 -16 0
v -13 -16 0
v -14 -17 0
v -15 -17 0
v -15 -16 0
v -14 -16 0
v -15 -17 0
v -16 -17 0
v -16 -16 0
v -15 -16 0
v -16 -17 0
v -17 -17 0
v -17 -16 0
v -16 -16 0
v -18 -17 0
v -19 -17 0
v -19 -16 0
v -18 -16 0
v -19 -17 0
v -20 -17 0
v -20 -16 0
v -19 -16 0
v -20 -17 0
v -21 -17 0
v -21 -16 0
v -20 -16 0
v -21 -17 0
v -22 -17 0
v -22 -16 0
v -21 -16 0
v -22 -17 0
v -23 -17 0
v -23 -16 0
v -22 -16 0
v -23 -17 0
v -24 -17 0
v -24 -16 0
v -23 -16 0
v -25 -17 0
v -26 -17 0
v -26 -16 0
v -25 -16 0
v -26 -17 0
v -27 -17 0
v -27 -16 0
v -26 -16 0
v -27 -17 0
v -28 -17 0
v -28 -16 0
v -27 -16 0
v -28 -17 0
v -29 -17 0
v -29 -16 0
v -28 -16 0
v 0 -18 0
v -1 -18 0
v -1 -17 0
v 0 -17 0
v -1 -18 0
v -2 -18 0
v -2 -17 0
v -1 -17 0
v -2 -18 0
v -3 -18 0
v -3 -17 0
v -2 -17 0
v -3 -18 0
v -4 -18 0
v -4 -17 0
v -3 -17 0
v -5 -18 0
v -6 -18 0
v -6 -17 0
v -5 -17 0
v -6 -18 0
v -7 -18 0
v -7 -17 0
v -6 -17 0
v -7 -18 0
v -8 -18 0
v -8 -17 0
v -7 -17 0
v -8 -18 0
v -9 -18 0
v -9 -17 0
v -8 -17 0
v -9 -18 0
v -10 -18 0
v -10 -17 0
v -9 -17 0
v -10 -18 0
v -11 -18 0
v -11 -17 0
v -10 -17 0
v -13 -18 0
v -14 -18 0
v -14 -17 0
v -13 -17 0
v -14 -18 0
v -15 -18 0
v -15 -17 0
v -14 -17 0
v -15 -18 0
v -16 -18 0
v -16 -17 0
v -15 -17 0
v -18 -18 0
v -19 -18 0
v -19 -17 0
v -18 -17 0
v -19 -18 0
v -20 -18 0
v -20 -17 0
v -19 -17 0
v -20 -18 0
v -21 -18 0
v -21 -17 0
v -20 -17 0
v -21 -18 0
v -22 -18 0
v -22 -17 0
v -21 -17 0
v -22 -18 0
v -23 -18 0
v -23 -17 0
v -22 -17 0
v -23 -18 0
v -24 -18 0
v -24 -17 0
v -23 -17 0
v -25 -18 0
v -26 -18 0
v -26 -17 0
v -25 -17 0
v -26 -18 0
v -27 -18 0
v -27 -17 0
v -26 -17 0
v -27 -18 0
v -28 -18 0
v -28 -17 0
v -27 -17 0
v -28 -18 0
v -29 -18 0
v -29 -17 0
v -28 -17 0

# Texture cooridinates (Count = 113)
vt 0.05555556 0.375
vt 0.08333334 0.375
vt 0.08333334 0.4166667
vt 0.05555556 0.4166667
vt 0.1111111 0.375
vt 0.1111111 0.4166667
vt 0.1388889 0.375
vt 0.1388889 0.4166667
vt 0.05555556 0.3333333
vt 0.08333334 0.3333333
vt 0.1111111 0.3333333
vt 0.1388889 0.3333333
vt 0 0.25
vt 0.02777778 0.25
vt 0.02777778 0.2916667
vt 0 0.2916667
vt 0.05555556 0.25
vt 0.05555556 0.2916667
vt 0.2222222 0.125
vt 0.25 0.125
vt 0.25 0.1666667
vt 0.2222222 0.1666667
vt 0.25 0.04166669
vt 0.2777778 0.04166669
vt 0.2777778 0.08333331
vt 0.25 0.08333331
vt 0 0.2083333
vt 0.02777778 0.2083333
vt 0.05555556 0.2083333
vt 0.2222222 0.08333331
vt 0.2777778 0.1666667
vt 0.2777778 0.2083333
vt 0.25 0.2083333
vt 0.02777778 0.04166669
vt 0.05555556 0.04166669
vt 0.05555556 0.08333331
vt 0.02777778 0.08333331
vt 0.08333334 0.04166669
vt 0.08333334 0.08333331
vt 0.1111111 0.04166669
vt 0.1111111 0.08333331
vt 0.1388889 0.04166669
vt 0.1666667 0.04166669
vt 0.1666667 0.08333331
vt 0.1388889 0.08333331
vt 0.2222222 0.04166669
vt 0 0
vt 0.02777778 0
vt 0 0.04166669
vt 0.05555556 0
vt 0.08333334 0
vt 0.1111111 0
vt 0.1388889 0
vt 0.2222222 0
vt 0.25 0
vt 0.2777778 0
vt 0.2222222 0.7083334
vt 0.25 0.7083334
vt 0.25 0.75
vt 0.2222222 0.75
vt 0.2777778 0.75
vt 0.2777778 0.7916667
vt 0.25 0.7916667
vt 0.3055556 0.75
vt 0.3055556 0.7916667
vt 0.2222222 0.6666666
vt 0.25 0.6666666
vt 0.2777778 0.7083334
vt 0.3055556 0.7083334
vt 0.3333333 0.7083334
vt 0.3333333 0.75
vt 0.2777778 0.6666666
vt 0.3055556 0.6666666
vt 0.1944444 0.75
vt 0.2222222 0.7916667
vt 0.1944444 0.7916667
vt 0.3333333 0.7916667
vt 0.6666667 0.125
vt 0.6944444 0.125
vt 0.6944444 0.1666667
vt 0.6666667 0.1666667
vt 0.7222222 0.125
vt 0.7222222 0.1666667
vt 0.75 0.125
vt 0.75 0.1666667
vt 0.7777778 0.125
vt 0.7777778 0.1666667
vt 0.8055556 0.125
vt 0.8055556 0.1666667
vt 0.8333333 0.125
vt 0.8333333 0.1666667
vt 0.6666667 0.08333331
vt 0.6944444 0.08333331
vt 0.7222222 0.08333331
vt 0.75 0.08333331
vt 0.7777778 0.08333331
vt 0.8055556 0.08333331
vt 0.8333333 0.08333331
vt 0.3333333 0.6666666
vt 0.6666667 0.04166669
vt 0.6944444 0.04166669
vt 0.7222222 0.04166669
vt 0.75 0.04166669
vt 0.7777778 0.04166669
vt 0.8055556 0.04166669
vt 0.8333333 0.04166669
vt 0.6666667 0
vt 0.6944444 0
vt 0.7222222 0
vt 0.75 0
vt 0.7777778 0
vt 0.8055556 0
vt 0.8333333 0

# Normal
vn 0 0 -1

# Mesh description
g BAR1.1_mesh_0007

# Faces
f 1/1/1 2/2/1 3/3/1 4/4/1
f 5/2/1 6/5/1 7/6/1 8/3/1
f 9/5/1 10/7/1 11/8/1 12/6/1
f 13/9/1 14/10/1 15/2/1 16/1/1
f 17/10/1 18/11/1 19/5/1 20/2/1
f 21/11/1 22/12/1 23/7/1 24/5/1
f 25/13/1 26/14/1 27/15/1 28/16/1
f 29/14/1 30/17/1 31/18/1 32/15/1
f 33/19/1 34/20/1 35/21/1 36/22/1
f 37/23/1 38/24/1 39/25/1 40/26/1
f 41/27/1 42/28/1 43/14/1 44/13/1
f 45/28/1 46/29/1 47/17/1 48/14/1
f 49/30/1 50/26/1 51/20/1 52/19/1
f 53/21/1 54/31/1 55/32/1 56/33/1
f 57/27/1 58/28/1 59/14/1 60/13/1
f 61/34/1 62/35/1 63/36/1 64/37/1
f 65/35/1 66/38/1 67/39/1 68/36/1
f 69/38/1 70/40/1 71/41/1 72/39/1
f 73/35/1 74/38/1 75/39/1 76/36/1
f 77/42/1 78/43/1 79/44/1 80/45/1
f 81/42/1 82/43/1 83/44/1 84/45/1
f 85/35/1 86/38/1 87/39/1 88/36/1
f 89/42/1 90/43/1 91/44/1 92/45/1
f 93/42/1 94/43/1 95/44/1 96/45/1
f 97/35/1 98/38/1 99/39/1 100/36/1
f 101/38/1 102/40/1 103/41/1 104/39/1
f 105/46/1 106/23/1 107/26/1 108/30/1
f 109/23/1 110/24/1 111/25/1 112/26/1
f 113/47/1 114/48/1 115/34/1 116/49/1
f 117/48/1 118/50/1 119/35/1 120/34/1
f 121/50/1 122/51/1 123/38/1 124/35/1
f 125/52/1 126/53/1 127/42/1 128/40/1
f 129/52/1 130/53/1 131/42/1 132/40/1
f 133/52/1 134/53/1 135/42/1 136/40/1
f 137/52/1 138/53/1 139/42/1 140/40/1
f 141/52/1 142/53/1 143/42/1 144/40/1
f 145/52/1 146/53/1 147/42/1 148/40/1
f 149/52/1 150/53/1 151/42/1 152/40/1
f 153/52/1 154/53/1 155/42/1 156/40/1
f 157/52/1 158/53/1 159/42/1 160/40/1
f 161/54/1 162/55/1 163/23/1 164/46/1
f 165/55/1 166/56/1 167/24/1 168/23/1
f 169/57/1 170/58/1 171/59/1 172/60/1
f 173/59/1 174/61/1 175/62/1 176/63/1
f 177/61/1 178/64/1 179/65/1 180/62/1
f 181/66/1 182/67/1 183/58/1 184/57/1
f 185/57/1 186/58/1 187/59/1 188/60/1
f 189/58/1 190/68/1 191/61/1 192/59/1
f 193/68/1 194/69/1 195/64/1 196/61/1
f 197/69/1 198/70/1 199/71/1 200/64/1
f 201/59/1 202/61/1 203/62/1 204/63/1
f 205/61/1 206/64/1 207/65/1 208/62/1
f 209/67/1 210/72/1 211/68/1 212/58/1
f 213/72/1 214/73/1 215/69/1 216/68/1
f 217/74/1 218/60/1 219/75/1 220/76/1
f 221/57/1 222/58/1 223/59/1 224/60/1
f 225/58/1 226/68/1 227/61/1 228/59/1
f 229/68/1 230/69/1 231/64/1 232/61/1
f 233/69/1 234/70/1 235/71/1 236/64/1
f 237/66/1 238/67/1 239/58/1 240/57/1
f 241/60/1 242/59/1 243/63/1 244/75/1
f 245/59/1 246/61/1 247/62/1 248/63/1
f 249/61/1 250/64/1 251/65/1 252/62/1
f 253/64/1 254/71/1 255/77/1 256/65/1
f 257/66/1 258/67/1 259/58/1 260/57/1
f 261/67/1 262/72/1 263/68/1 264/58/1
f 265/72/1 266/73/1 267/69/1 268/68/1
f 269/74/1 270/60/1 271/75/1 272/76/1
f 273/78/1 274/79/1 275/80/1 276/81/1
f 277/79/1 278/82/1 279/83/1 280/80/1
f 281/82/1 282/84/1 283/85/1 284/83/1
f 285/84/1 286/86/1 287/87/1 288/85/1
f 289/86/1 290/88/1 291/89/1 292/87/1
f 293/88/1 294/90/1 295/91/1 296/89/1
f 297/78/1 298/79/1 299/80/1 300/81/1
f 301/79/1 302/82/1 303/83/1 304/80/1
f 305/82/1 306/84/1 307/85/1 308/83/1
f 309/84/1 310/86/1 311/87/1 312/85/1
f 313/86/1 314/88/1 315/89/1 316/87/1
f 317/88/1 318/90/1 319/91/1 320/89/1
f 321/57/1 322/58/1 323/59/1 324/60/1
f 325/58/1 326/68/1 327/61/1 328/59/1
f 329/68/1 330/69/1 331/64/1 332/61/1
f 333/69/1 334/70/1 335/71/1 336/64/1
f 337/59/1 338/61/1 339/62/1 340/63/1
f 341/61/1 342/64/1 343/65/1 344/62/1
f 345/92/1 346/93/1 347/79/1 348/78/1
f 349/93/1 350/94/1 351/82/1 352/79/1
f 353/94/1 354/95/1 355/84/1 356/82/1
f 357/95/1 358/96/1 359/86/1 360/84/1
f 361/96/1 362/97/1 363/88/1 364/86/1
f 365/97/1 366/98/1 367/90/1 368/88/1
f 369/74/1 370/60/1 371/75/1 372/76/1
f 373/59/1 374/61/1 375/62/1 376/63/1
f 377/61/1 378/64/1 379/65/1 380/62/1
f 381/92/1 382/93/1 383/79/1 384/78/1
f 385/93/1 386/94/1 387/82/1 388/79/1
f 389/94/1 390/95/1 391/84/1 392/82/1
f 393/95/1 394/96/1 395/86/1 396/84/1
f 397/96/1 398/97/1 399/88/1 400/86/1
f 401/97/1 402/98/1 403/90/1 404/88/1
f 405/60/1 406/59/1 407/63/1 408/75/1
f 409/59/1 410/61/1 411/62/1 412/63/1
f 413/61/1 414/64/1 415/65/1 416/62/1
f 417/66/1 418/67/1 419/58/1 420/57/1
f 421/67/1 422/72/1 423/68/1 424/58/1
f 425/72/1 426/73/1 427/69/1 428/68/1
f 429/73/1 430/99/1 431/70/1 432/69/1
f 433/57/1 434/58/1 435/59/1 436/60/1
f 437/58/1 438/68/1 439/61/1 440/59/1
f 441/68/1 442/69/1 443/64/1 444/61/1
f 445/69/1 446/70/1 447/71/1 448/64/1
f 449/66/1 450/67/1 451/58/1 452/57/1
f 453/100/1 454/101/1 455/93/1 456/92/1
f 457/101/1 458/102/1 459/94/1 460/93/1
f 461/102/1 462/103/1 463/95/1 464/94/1
f 465/103/1 466/104/1 467/96/1 468/95/1
f 469/104/1 470/105/1 471/97/1 472/96/1
f 473/105/1 474/106/1 475/98/1 476/97/1
f 477/57/1 478/58/1 479/59/1 480/60/1
f 481/58/1 482/68/1 483/61/1 484/59/1
f 485/68/1 486/69/1 487/64/1 488/61/1
f 489/69/1 490/70/1 491/71/1 492/64/1
f 493/100/1 494/101/1 495/93/1 496/92/1
f 497/101/1 498/102/1 499/94/1 500/93/1
f 501/102/1 502/103/1 503/95/1 504/94/1
f 505/103/1 506/104/1 507/96/1 508/95/1
f 509/104/1 510/105/1 511/97/1 512/96/1
f 513/105/1 514/106/1 515/98/1 516/97/1
f 517/57/1 518/58/1 519/59/1 520/60/1
f 521/58/1 522/68/1 523/61/1 524/59/1
f 525/68/1 526/69/1 527/64/1 528/61/1
f 529/69/1 530/70/1 531/71/1 532/64/1
f 533/66/1 534/67/1 535/58/1 536/57/1
f 537/67/1 538/72/1 539/68/1 540/58/1
f 541/72/1 542/73/1 543/69/1 544/68/1
f 545/74/1 546/60/1 547/75/1 548/76/1
f 549/107/1 550/108/1 551/101/1 552/100/1
f 553/108/1 554/109/1 555/102/1 556/101/1
f 557/109/1 558/110/1 559/103/1 560/102/1
f 561/110/1 562/111/1 563/104/1 564/103/1
f 565/111/1 566/112/1 567/105/1 568/104/1
f 569/112/1 570/113/1 571/106/1 572/105/1
f 573/66/1 574/67/1 575/58/1 576/57/1
f 577/67/1 578/72/1 579/68/1 580/58/1
f 581/72/1 582/73/1 583/69/1 584/68/1
f 585/107/1 586/108/1 587/101/1 588/100/1
f 589/108/1 590/109/1 591/102/1 592/101/1
f 593/109/1 594/110/1 595/103/1 596/102/1
f 597/110/1 598/111/1 599/104/1 600/103/1
f 601/111/1 602/112/1 603/105/1 604/104/1
f 605/112/1 606/113/1 607/106/1 608/105/1
f 609/66/1 610/67/1 611/58/1 612/57/1
f 613/67/1 614/72/1 615/68/1 616/58/1
f 617/72/1 618/73/1 619/69/1 620/68/1
f 621/74/1 622/60/1 623/75/1 624/76/1

