# Tiled2Unity generated file. Do not modify by hand.
# Wavefront file for 'BAR1.1_mesh_0002.obj'

# Vertices (Count = 632)
v 0 -1 0
v -1 -1 0
v -1 0 0
v 0 0 0
v -1 -1 0
v -2 -1 0
v -2 0 0
v -1 0 0
v -2 -1 0
v -3 -1 0
v -3 0 0
v -2 0 0
v -3 -1 0
v -4 -1 0
v -4 0 0
v -3 0 0
v -4 -1 0
v -5 -1 0
v -5 0 0
v -4 0 0
v -5 -1 0
v -6 -1 0
v -6 0 0
v -5 0 0
v -6 -1 0
v -7 -1 0
v -7 0 0
v -6 0 0
v -7 -1 0
v -8 -1 0
v -8 0 0
v -7 0 0
v -8 -1 0
v -9 -1 0
v -9 0 0
v -8 0 0
v -9 -1 0
v -10 -1 0
v -10 0 0
v -9 0 0
v -10 -1 0
v -11 -1 0
v -11 0 0
v -10 0 0
v -11 -1 0
v -12 -1 0
v -12 0 0
v -11 0 0
v -12 -1 0
v -13 -1 0
v -13 0 0
v -12 0 0
v -13 -1 0
v -14 -1 0
v -14 0 0
v -13 0 0
v -14 -1 0
v -15 -1 0
v -15 0 0
v -14 0 0
v -15 -1 0
v -16 -1 0
v -16 0 0
v -15 0 0
v -16 -1 0
v -17 -1 0
v -17 0 0
v -16 0 0
v -17 -1 0
v -18 -1 0
v -18 0 0
v -17 0 0
v -18 -1 0
v -19 -1 0
v -19 0 0
v -18 0 0
v -19 -1 0
v -20 -1 0
v -20 0 0
v -19 0 0
v -20 -1 0
v -21 -1 0
v -21 0 0
v -20 0 0
v -21 -1 0
v -22 -1 0
v -22 0 0
v -21 0 0
v -22 -1 0
v -23 -1 0
v -23 0 0
v -22 0 0
v -23 -1 0
v -24 -1 0
v -24 0 0
v -23 0 0
v -24 -1 0
v -25 -1 0
v -25 0 0
v -24 0 0
v -25 -1 0
v -26 -1 0
v -26 0 0
v -25 0 0
v -26 -1 0
v -27 -1 0
v -27 0 0
v -26 0 0
v -27 -1 0
v -28 -1 0
v -28 0 0
v -27 0 0
v -28 -1 0
v -29 -1 0
v -29 0 0
v -28 0 0
v -29 -1 0
v -30 -1 0
v -30 0 0
v -29 0 0
v -30 -1 0
v -31 -1 0
v -31 0 0
v -30 0 0
v -31 -1 0
v -32 -1 0
v -32 0 0
v -31 0 0
v 0 -2 0
v -1 -2 0
v -1 -1 0
v 0 -1 0
v -1 -2 0
v -2 -2 0
v -2 -1 0
v -1 -1 0
v -2 -2 0
v -3 -2 0
v -3 -1 0
v -2 -1 0
v -3 -2 0
v -4 -2 0
v -4 -1 0
v -3 -1 0
v -4 -2 0
v -5 -2 0
v -5 -1 0
v -4 -1 0
v -5 -2 0
v -6 -2 0
v -6 -1 0
v -5 -1 0
v -6 -2 0
v -7 -2 0
v -7 -1 0
v -6 -1 0
v -7 -2 0
v -8 -2 0
v -8 -1 0
v -7 -1 0
v -8 -2 0
v -9 -2 0
v -9 -1 0
v -8 -1 0
v -9 -2 0
v -10 -2 0
v -10 -1 0
v -9 -1 0
v -10 -2 0
v -11 -2 0
v -11 -1 0
v -10 -1 0
v -11 -2 0
v -12 -2 0
v -12 -1 0
v -11 -1 0
v -12 -2 0
v -13 -2 0
v -13 -1 0
v -12 -1 0
v -13 -2 0
v -14 -2 0
v -14 -1 0
v -13 -1 0
v -14 -2 0
v -15 -2 0
v -15 -1 0
v -14 -1 0
v -15 -2 0
v -16 -2 0
v -16 -1 0
v -15 -1 0
v -16 -2 0
v -17 -2 0
v -17 -1 0
v -16 -1 0
v -17 -2 0
v -18 -2 0
v -18 -1 0
v -17 -1 0
v -18 -2 0
v -19 -2 0
v -19 -1 0
v -18 -1 0
v -19 -2 0
v -20 -2 0
v -20 -1 0
v -19 -1 0
v -20 -2 0
v -21 -2 0
v -21 -1 0
v -20 -1 0
v -21 -2 0
v -22 -2 0
v -22 -1 0
v -21 -1 0
v -22 -2 0
v -23 -2 0
v -23 -1 0
v -22 -1 0
v -23 -2 0
v -24 -2 0
v -24 -1 0
v -23 -1 0
v -24 -2 0
v -25 -2 0
v -25 -1 0
v -24 -1 0
v -25 -2 0
v -26 -2 0
v -26 -1 0
v -25 -1 0
v -26 -2 0
v -27 -2 0
v -27 -1 0
v -26 -1 0
v -27 -2 0
v -28 -2 0
v -28 -1 0
v -27 -1 0
v -28 -2 0
v -29 -2 0
v -29 -1 0
v -28 -1 0
v -29 -2 0
v -30 -2 0
v -30 -1 0
v -29 -1 0
v -30 -2 0
v -31 -2 0
v -31 -1 0
v -30 -1 0
v -31 -2 0
v -32 -2 0
v -32 -1 0
v -31 -1 0
v 0 -3 0
v -1 -3 0
v -1 -2 0
v 0 -2 0
v -31 -3 0
v -32 -3 0
v -32 -2 0
v -31 -2 0
v 0 -4 0
v -1 -4 0
v -1 -3 0
v 0 -3 0
v -31 -4 0
v -32 -4 0
v -32 -3 0
v -31 -3 0
v 0 -5 0
v -1 -5 0
v -1 -4 0
v 0 -4 0
v 0 -6 0
v -1 -6 0
v -1 -5 0
v 0 -5 0
v 0 -7 0
v -1 -7 0
v -1 -6 0
v 0 -6 0
v -31 -7 0
v -32 -7 0
v -32 -6 0
v -31 -6 0
v 0 -8 0
v -1 -8 0
v -1 -7 0
v 0 -7 0
v -31 -8 0
v -32 -8 0
v -32 -7 0
v -31 -7 0
v 0 -9 0
v -1 -9 0
v -1 -8 0
v 0 -8 0
v -31 -9 0
v -32 -9 0
v -32 -8 0
v -31 -8 0
v 0 -10 0
v -1 -10 0
v -1 -9 0
v 0 -9 0
v -31 -10 0
v -32 -10 0
v -32 -9 0
v -31 -9 0
v 0 -11 0
v -1 -11 0
v -1 -10 0
v 0 -10 0
v -31 -11 0
v -32 -11 0
v -32 -10 0
v -31 -10 0
v 0 -12 0
v -1 -12 0
v -1 -11 0
v 0 -11 0
v -31 -12 0
v -32 -12 0
v -32 -11 0
v -31 -11 0
v 0 -13 0
v -1 -13 0
v -1 -12 0
v 0 -12 0
v -31 -13 0
v -32 -13 0
v -32 -12 0
v -31 -12 0
v 0 -14 0
v -1 -14 0
v -1 -13 0
v 0 -13 0
v -31 -14 0
v -32 -14 0
v -32 -13 0
v -31 -13 0
v 0 -15 0
v -1 -15 0
v -1 -14 0
v 0 -14 0
v -31 -15 0
v -32 -15 0
v -32 -14 0
v -31 -14 0
v 0 -16 0
v -1 -16 0
v -1 -15 0
v 0 -15 0
v -31 -16 0
v -32 -16 0
v -32 -15 0
v -31 -15 0
v 0 -17 0
v -1 -17 0
v -1 -16 0
v 0 -16 0
v -31 -17 0
v -32 -17 0
v -32 -16 0
v -31 -16 0
v 0 -18 0
v -1 -18 0
v -1 -17 0
v 0 -17 0
v -31 -18 0
v -32 -18 0
v -32 -17 0
v -31 -17 0
v 0 -19 0
v -1 -19 0
v -1 -18 0
v 0 -18 0
v -1 -19 0
v -2 -19 0
v -2 -18 0
v -1 -18 0
v -2 -19 0
v -3 -19 0
v -3 -18 0
v -2 -18 0
v -3 -19 0
v -4 -19 0
v -4 -18 0
v -3 -18 0
v -4 -19 0
v -5 -19 0
v -5 -18 0
v -4 -18 0
v -5 -19 0
v -6 -19 0
v -6 -18 0
v -5 -18 0
v -6 -19 0
v -7 -19 0
v -7 -18 0
v -6 -18 0
v -7 -19 0
v -8 -19 0
v -8 -18 0
v -7 -18 0
v -8 -19 0
v -9 -19 0
v -9 -18 0
v -8 -18 0
v -9 -19 0
v -10 -19 0
v -10 -18 0
v -9 -18 0
v -10 -19 0
v -11 -19 0
v -11 -18 0
v -10 -18 0
v -11 -19 0
v -12 -19 0
v -12 -18 0
v -11 -18 0
v -12 -19 0
v -13 -19 0
v -13 -18 0
v -12 -18 0
v -13 -19 0
v -14 -19 0
v -14 -18 0
v -13 -18 0
v -14 -19 0
v -15 -19 0
v -15 -18 0
v -14 -18 0
v -15 -19 0
v -16 -19 0
v -16 -18 0
v -15 -18 0
v -16 -19 0
v -17 -19 0
v -17 -18 0
v -16 -18 0
v -17 -19 0
v -18 -19 0
v -18 -18 0
v -17 -18 0
v -18 -19 0
v -19 -19 0
v -19 -18 0
v -18 -18 0
v -19 -19 0
v -20 -19 0
v -20 -18 0
v -19 -18 0
v -20 -19 0
v -21 -19 0
v -21 -18 0
v -20 -18 0
v -21 -19 0
v -22 -19 0
v -22 -18 0
v -21 -18 0
v -22 -19 0
v -23 -19 0
v -23 -18 0
v -22 -18 0
v -23 -19 0
v -24 -19 0
v -24 -18 0
v -23 -18 0
v -24 -19 0
v -25 -19 0
v -25 -18 0
v -24 -18 0
v -25 -19 0
v -26 -19 0
v -26 -18 0
v -25 -18 0
v -26 -19 0
v -27 -19 0
v -27 -18 0
v -26 -18 0
v -27 -19 0
v -28 -19 0
v -28 -18 0
v -27 -18 0
v -28 -19 0
v -29 -19 0
v -29 -18 0
v -28 -18 0
v -29 -19 0
v -30 -19 0
v -30 -18 0
v -29 -18 0
v -30 -19 0
v -31 -19 0
v -31 -18 0
v -30 -18 0
v -31 -19 0
v -32 -19 0
v -32 -18 0
v -31 -18 0
v 0 -20 0
v -1 -20 0
v -1 -19 0
v 0 -19 0
v -1 -20 0
v -2 -20 0
v -2 -19 0
v -1 -19 0
v -2 -20 0
v -3 -20 0
v -3 -19 0
v -2 -19 0
v -3 -20 0
v -4 -20 0
v -4 -19 0
v -3 -19 0
v -4 -20 0
v -5 -20 0
v -5 -19 0
v -4 -19 0
v -5 -20 0
v -6 -20 0
v -6 -19 0
v -5 -19 0
v -6 -20 0
v -7 -20 0
v -7 -19 0
v -6 -19 0
v -7 -20 0
v -8 -20 0
v -8 -19 0
v -7 -19 0
v -8 -20 0
v -9 -20 0
v -9 -19 0
v -8 -19 0
v -9 -20 0
v -10 -20 0
v -10 -19 0
v -9 -19 0
v -10 -20 0
v -11 -20 0
v -11 -19 0
v -10 -19 0
v -11 -20 0
v -12 -20 0
v -12 -19 0
v -11 -19 0
v -12 -20 0
v -13 -20 0
v -13 -19 0
v -12 -19 0
v -13 -20 0
v -14 -20 0
v -14 -19 0
v -13 -19 0
v -14 -20 0
v -15 -20 0
v -15 -19 0
v -14 -19 0
v -15 -20 0
v -16 -20 0
v -16 -19 0
v -15 -19 0
v -16 -20 0
v -17 -20 0
v -17 -19 0
v -16 -19 0
v -17 -20 0
v -18 -20 0
v -18 -19 0
v -17 -19 0
v -18 -20 0
v -19 -20 0
v -19 -19 0
v -18 -19 0
v -19 -20 0
v -20 -20 0
v -20 -19 0
v -19 -19 0
v -20 -20 0
v -21 -20 0
v -21 -19 0
v -20 -19 0
v -21 -20 0
v -22 -20 0
v -22 -19 0
v -21 -19 0
v -22 -20 0
v -23 -20 0
v -23 -19 0
v -22 -19 0
v -23 -20 0
v -24 -20 0
v -24 -19 0
v -23 -19 0
v -24 -20 0
v -25 -20 0
v -25 -19 0
v -24 -19 0
v -25 -20 0
v -26 -20 0
v -26 -19 0
v -25 -19 0
v -26 -20 0
v -27 -20 0
v -27 -19 0
v -26 -19 0
v -27 -20 0
v -28 -20 0
v -28 -19 0
v -27 -19 0
v -28 -20 0
v -29 -20 0
v -29 -19 0
v -28 -19 0
v -29 -20 0
v -30 -20 0
v -30 -19 0
v -29 -19 0
v -30 -20 0
v -31 -20 0
v -31 -19 0
v -30 -19 0
v -31 -20 0
v -32 -20 0
v -32 -19 0
v -31 -19 0

# Texture cooridinates (Count = 46)
vt 0 0.625
vt 0.02777778 0.625
vt 0.02777778 0.6666666
vt 0 0.6666666
vt 0.05555556 0.625
vt 0.05555556 0.6666666
vt 0.08333334 0.625
vt 0.08333334 0.6666666
vt 0.1111111 0.625
vt 0.1111111 0.6666666
vt 0.1388889 0.625
vt 0.1388889 0.6666666
vt 0.1666667 0.625
vt 0.1666667 0.6666666
vt 0 0.5833334
vt 0.02777778 0.5833334
vt 0.08333334 0.5833334
vt 0.1111111 0.5833334
vt 0.05555556 0.5833334
vt 0.1388889 0.5833334
vt 0.1666667 0.5833334
vt 0 0.5416666
vt 0.02777778 0.5416666
vt 0.1388889 0.5416666
vt 0.1666667 0.5416666
vt 0 0.5
vt 0.02777778 0.5
vt 0.1388889 0.5
vt 0.1666667 0.5
vt 0 0.4583333
vt 0.02777778 0.4583333
vt 0.05555556 0.4583333
vt 0.05555556 0.5
vt 0.08333334 0.4583333
vt 0.08333334 0.5
vt 0.1111111 0.4583333
vt 0.1388889 0.4583333
vt 0.1111111 0.5
vt 0.1666667 0.4583333
vt 0 0.4166667
vt 0.02777778 0.4166667
vt 0.1388889 0.4166667
vt 0.1666667 0.4166667
vt 0.05555556 0.4166667
vt 0.1111111 0.4166667
vt 0.08333334 0.4166667

# Normal
vn 0 0 -1

# Mesh description
g BAR1.1_mesh_0002

# Faces
f 1/1/1 2/2/1 3/3/1 4/4/1
f 5/2/1 6/5/1 7/6/1 8/3/1
f 9/2/1 10/5/1 11/6/1 12/3/1
f 13/2/1 14/5/1 15/6/1 16/3/1
f 17/2/1 18/5/1 19/6/1 20/3/1
f 21/2/1 22/5/1 23/6/1 24/3/1
f 25/5/1 26/7/1 27/8/1 28/6/1
f 29/5/1 30/7/1 31/8/1 32/6/1
f 33/5/1 34/7/1 35/8/1 36/6/1
f 37/5/1 38/7/1 39/8/1 40/6/1
f 41/5/1 42/7/1 43/8/1 44/6/1
f 45/7/1 46/9/1 47/10/1 48/8/1
f 49/7/1 50/9/1 51/10/1 52/8/1
f 53/7/1 54/9/1 55/10/1 56/8/1
f 57/7/1 58/9/1 59/10/1 60/8/1
f 61/5/1 62/7/1 63/8/1 64/6/1
f 65/5/1 66/7/1 67/8/1 68/6/1
f 69/5/1 70/7/1 71/8/1 72/6/1
f 73/7/1 74/9/1 75/10/1 76/8/1
f 77/7/1 78/9/1 79/10/1 80/8/1
f 81/5/1 82/7/1 83/8/1 84/6/1
f 85/5/1 86/7/1 87/8/1 88/6/1
f 89/5/1 90/7/1 91/8/1 92/6/1
f 93/7/1 94/9/1 95/10/1 96/8/1
f 97/7/1 98/9/1 99/10/1 100/8/1
f 101/7/1 102/9/1 103/10/1 104/8/1
f 105/7/1 106/9/1 107/10/1 108/8/1
f 109/7/1 110/9/1 111/10/1 112/8/1
f 113/9/1 114/11/1 115/12/1 116/10/1
f 117/9/1 118/11/1 119/12/1 120/10/1
f 121/9/1 122/11/1 123/12/1 124/10/1
f 125/11/1 126/13/1 127/14/1 128/12/1
f 129/15/1 130/16/1 131/2/1 132/1/1
f 133/17/1 134/18/1 135/9/1 136/7/1
f 137/17/1 138/18/1 139/9/1 140/7/1
f 141/17/1 142/18/1 143/9/1 144/7/1
f 145/19/1 146/17/1 147/7/1 148/5/1
f 149/16/1 150/19/1 151/5/1 152/2/1
f 153/17/1 154/18/1 155/9/1 156/7/1
f 157/16/1 158/19/1 159/5/1 160/2/1
f 161/19/1 162/17/1 163/7/1 164/5/1
f 165/17/1 166/18/1 167/9/1 168/7/1
f 169/19/1 170/17/1 171/7/1 172/5/1
f 173/16/1 174/19/1 175/5/1 176/2/1
f 177/17/1 178/18/1 179/9/1 180/7/1
f 181/16/1 182/19/1 183/5/1 184/2/1
f 185/19/1 186/17/1 187/7/1 188/5/1
f 189/19/1 190/17/1 191/7/1 192/5/1
f 193/17/1 194/18/1 195/9/1 196/7/1
f 197/19/1 198/17/1 199/7/1 200/5/1
f 201/16/1 202/19/1 203/5/1 204/2/1
f 205/17/1 206/18/1 207/9/1 208/7/1
f 209/19/1 210/17/1 211/7/1 212/5/1
f 213/17/1 214/18/1 215/9/1 216/7/1
f 217/19/1 218/17/1 219/7/1 220/5/1
f 221/16/1 222/19/1 223/5/1 224/2/1
f 225/17/1 226/18/1 227/9/1 228/7/1
f 229/16/1 230/19/1 231/5/1 232/2/1
f 233/19/1 234/17/1 235/7/1 236/5/1
f 237/17/1 238/18/1 239/9/1 240/7/1
f 241/18/1 242/20/1 243/11/1 244/9/1
f 245/18/1 246/20/1 247/11/1 248/9/1
f 249/18/1 250/20/1 251/11/1 252/9/1
f 253/20/1 254/21/1 255/13/1 256/11/1
f 257/22/1 258/23/1 259/16/1 260/15/1
f 261/24/1 262/25/1 263/21/1 264/20/1
f 265/26/1 266/27/1 267/23/1 268/22/1
f 269/28/1 270/29/1 271/25/1 272/24/1
f 273/22/1 274/23/1 275/16/1 276/15/1
f 277/26/1 278/27/1 279/23/1 280/22/1
f 281/22/1 282/23/1 283/16/1 284/15/1
f 285/24/1 286/25/1 287/21/1 288/20/1
f 289/22/1 290/23/1 291/16/1 292/15/1
f 293/24/1 294/25/1 295/21/1 296/20/1
f 297/26/1 298/27/1 299/23/1 300/22/1
f 301/28/1 302/29/1 303/25/1 304/24/1
f 305/22/1 306/23/1 307/16/1 308/15/1
f 309/24/1 310/25/1 311/21/1 312/20/1
f 313/26/1 314/27/1 315/23/1 316/22/1
f 317/28/1 318/29/1 319/25/1 320/24/1
f 321/22/1 322/23/1 323/16/1 324/15/1
f 325/28/1 326/29/1 327/25/1 328/24/1
f 329/22/1 330/23/1 331/16/1 332/15/1
f 333/24/1 334/25/1 335/21/1 336/20/1
f 337/22/1 338/23/1 339/16/1 340/15/1
f 341/28/1 342/29/1 343/25/1 344/24/1
f 345/26/1 346/27/1 347/23/1 348/22/1
f 349/28/1 350/29/1 351/25/1 352/24/1
f 353/22/1 354/23/1 355/16/1 356/15/1
f 357/28/1 358/29/1 359/25/1 360/24/1
f 361/26/1 362/27/1 363/23/1 364/22/1
f 365/24/1 366/25/1 367/21/1 368/20/1
f 369/22/1 370/23/1 371/16/1 372/15/1
f 373/28/1 374/29/1 375/25/1 376/24/1
f 377/30/1 378/31/1 379/27/1 380/26/1
f 381/31/1 382/32/1 383/33/1 384/27/1
f 385/31/1 386/32/1 387/33/1 388/27/1
f 389/31/1 390/32/1 391/33/1 392/27/1
f 393/31/1 394/32/1 395/33/1 396/27/1
f 397/31/1 398/32/1 399/33/1 400/27/1
f 401/31/1 402/32/1 403/33/1 404/27/1
f 405/31/1 406/32/1 407/33/1 408/27/1
f 409/31/1 410/32/1 411/33/1 412/27/1
f 413/32/1 414/34/1 415/35/1 416/33/1
f 417/31/1 418/32/1 419/33/1 420/27/1
f 421/31/1 422/32/1 423/33/1 424/27/1
f 425/36/1 426/37/1 427/28/1 428/38/1
f 429/31/1 430/32/1 431/33/1 432/27/1
f 433/5/1 434/7/1 435/8/1 436/6/1
f 437/5/1 438/7/1 439/8/1 440/6/1
f 441/5/1 442/7/1 443/8/1 444/6/1
f 445/7/1 446/9/1 447/10/1 448/8/1
f 449/7/1 450/9/1 451/10/1 452/8/1
f 453/5/1 454/7/1 455/8/1 456/6/1
f 457/5/1 458/7/1 459/8/1 460/6/1
f 461/5/1 462/7/1 463/8/1 464/6/1
f 465/5/1 466/7/1 467/8/1 468/6/1
f 469/5/1 470/7/1 471/8/1 472/6/1
f 473/5/1 474/7/1 475/8/1 476/6/1
f 477/7/1 478/9/1 479/10/1 480/8/1
f 481/7/1 482/9/1 483/10/1 484/8/1
f 485/7/1 486/9/1 487/10/1 488/8/1
f 489/7/1 490/9/1 491/10/1 492/8/1
f 493/36/1 494/37/1 495/28/1 496/38/1
f 497/31/1 498/32/1 499/33/1 500/27/1
f 501/37/1 502/39/1 503/29/1 504/28/1
f 505/40/1 506/41/1 507/31/1 508/30/1
f 509/42/1 510/43/1 511/39/1 512/37/1
f 513/41/1 514/44/1 515/32/1 516/31/1
f 517/45/1 518/42/1 519/37/1 520/36/1
f 521/40/1 522/41/1 523/31/1 524/30/1
f 525/42/1 526/43/1 527/39/1 528/37/1
f 529/40/1 530/41/1 531/31/1 532/30/1
f 533/45/1 534/42/1 535/37/1 536/36/1
f 537/40/1 538/41/1 539/31/1 540/30/1
f 541/40/1 542/41/1 543/31/1 544/30/1
f 545/40/1 546/41/1 547/31/1 548/30/1
f 549/44/1 550/46/1 551/34/1 552/32/1
f 553/42/1 554/43/1 555/39/1 556/37/1
f 557/40/1 558/41/1 559/31/1 560/30/1
f 561/19/1 562/17/1 563/7/1 564/5/1
f 565/17/1 566/18/1 567/9/1 568/7/1
f 569/19/1 570/17/1 571/7/1 572/5/1
f 573/16/1 574/19/1 575/5/1 576/2/1
f 577/17/1 578/18/1 579/9/1 580/7/1
f 581/19/1 582/17/1 583/7/1 584/5/1
f 585/17/1 586/18/1 587/9/1 588/7/1
f 589/19/1 590/17/1 591/7/1 592/5/1
f 593/19/1 594/17/1 595/7/1 596/5/1
f 597/17/1 598/18/1 599/9/1 600/7/1
f 601/19/1 602/17/1 603/7/1 604/5/1
f 605/16/1 606/19/1 607/5/1 608/2/1
f 609/17/1 610/18/1 611/9/1 612/7/1
f 613/16/1 614/19/1 615/5/1 616/2/1
f 617/19/1 618/17/1 619/7/1 620/5/1
f 621/40/1 622/41/1 623/31/1 624/30/1
f 625/42/1 626/43/1 627/39/1 628/37/1
f 629/42/1 630/43/1 631/39/1 632/37/1

