# Tiled2Unity generated file. Do not modify by hand.
# Wavefront file for 'Bar_Interior_mesh_0007.obj'

# Vertices (Count = 156)
v 0 -2 0
v -1 -2 0
v -1 -1 0
v 0 -1 0
v -1 -2 0
v -2 -2 0
v -2 -1 0
v -1 -1 0
v -30 -2 0
v -31 -2 0
v -31 -1 0
v -30 -1 0
v -31 -2 0
v -32 -2 0
v -32 -1 0
v -31 -1 0
v 0 -3 0
v -1 -3 0
v -1 -2 0
v 0 -2 0
v -1 -3 0
v -2 -3 0
v -2 -2 0
v -1 -2 0
v -30 -3 0
v -31 -3 0
v -31 -2 0
v -30 -2 0
v -31 -3 0
v -32 -3 0
v -32 -2 0
v -31 -2 0
v 0 -5 0
v -1 -5 0
v -1 -4 0
v 0 -4 0
v -1 -5 0
v -2 -5 0
v -2 -4 0
v -1 -4 0
v -31 -5 0
v -32 -5 0
v -32 -4 0
v -31 -4 0
v 0 -6 0
v -1 -6 0
v -1 -5 0
v 0 -5 0
v -1 -6 0
v -2 -6 0
v -2 -5 0
v -1 -5 0
v -30 -6 0
v -31 -6 0
v -31 -5 0
v -30 -5 0
v -31 -6 0
v -32 -6 0
v -32 -5 0
v -31 -5 0
v 0 -8 0
v -1 -8 0
v -1 -7 0
v 0 -7 0
v -1 -8 0
v -2 -8 0
v -2 -7 0
v -1 -7 0
v -30 -8 0
v -31 -8 0
v -31 -7 0
v -30 -7 0
v -31 -8 0
v -32 -8 0
v -32 -7 0
v -31 -7 0
v 0 -9 0
v -1 -9 0
v -1 -8 0
v 0 -8 0
v -1 -9 0
v -2 -9 0
v -2 -8 0
v -1 -8 0
v -30 -9 0
v -31 -9 0
v -31 -8 0
v -30 -8 0
v -31 -9 0
v -32 -9 0
v -32 -8 0
v -31 -8 0
v 0 -11 0
v -1 -11 0
v -1 -10 0
v 0 -10 0
v -1 -11 0
v -2 -11 0
v -2 -10 0
v -1 -10 0
v -30 -11 0
v -31 -11 0
v -31 -10 0
v -30 -10 0
v -31 -11 0
v -32 -11 0
v -32 -10 0
v -31 -10 0
v 0 -12 0
v -1 -12 0
v -1 -11 0
v 0 -11 0
v -1 -12 0
v -2 -12 0
v -2 -11 0
v -1 -11 0
v -30 -12 0
v -31 -12 0
v -31 -11 0
v -30 -11 0
v -31 -12 0
v -32 -12 0
v -32 -11 0
v -31 -11 0
v 0 -14 0
v -1 -14 0
v -1 -13 0
v 0 -13 0
v -1 -14 0
v -2 -14 0
v -2 -13 0
v -1 -13 0
v -30 -14 0
v -31 -14 0
v -31 -13 0
v -30 -13 0
v -31 -14 0
v -32 -14 0
v -32 -13 0
v -31 -13 0
v 0 -15 0
v -1 -15 0
v -1 -14 0
v 0 -14 0
v -1 -15 0
v -2 -15 0
v -2 -14 0
v -1 -14 0
v -30 -15 0
v -31 -15 0
v -31 -14 0
v -30 -14 0
v -31 -15 0
v -32 -15 0
v -32 -14 0
v -31 -14 0

# Texture cooridinates (Count = 21)
vt 0.3333333 0.7083334
vt 0.3611111 0.7083334
vt 0.3611111 0.75
vt 0.3333333 0.75
vt 0.3888889 0.7083334
vt 0.3888889 0.75
vt 0.3333333 0.7916667
vt 0.3611111 0.7916667
vt 0.3611111 0.8333333
vt 0.3333333 0.8333333
vt 0.3888889 0.7916667
vt 0.3888889 0.8333333
vt 0.3333333 0.6666666
vt 0.3611111 0.6666666
vt 0.3888889 0.6666666
vt 0.2777778 0.1666667
vt 0.25 0.1666667
vt 0.25 0.125
vt 0.2777778 0.125
vt 0.2777778 0.2083333
vt 0.25 0.2083333

# Normal
vn 0 0 -1

# Mesh description
g Bar_Interior_mesh_0007

# Faces
f 1/1/1 2/2/1 3/3/1 4/4/1
f 5/2/1 6/5/1 7/6/1 8/3/1
f 9/7/1 10/8/1 11/9/1 12/10/1
f 13/8/1 14/11/1 15/12/1 16/9/1
f 17/13/1 18/14/1 19/2/1 20/1/1
f 21/14/1 22/15/1 23/5/1 24/2/1
f 25/4/1 26/3/1 27/8/1 28/7/1
f 29/3/1 30/6/1 31/11/1 32/8/1
f 33/1/1 34/2/1 35/3/1 36/4/1
f 37/2/1 38/5/1 39/6/1 40/3/1
f 41/16/1 42/17/1 43/18/1 44/19/1
f 45/13/1 46/14/1 47/2/1 48/1/1
f 49/14/1 50/15/1 51/5/1 52/2/1
f 53/4/1 54/3/1 55/8/1 56/7/1
f 57/20/1 58/21/1 59/17/1 60/16/1
f 61/1/1 62/2/1 63/3/1 64/4/1
f 65/2/1 66/5/1 67/6/1 68/3/1
f 69/7/1 70/8/1 71/9/1 72/10/1
f 73/8/1 74/11/1 75/12/1 76/9/1
f 77/13/1 78/14/1 79/2/1 80/1/1
f 81/14/1 82/15/1 83/5/1 84/2/1
f 85/4/1 86/3/1 87/8/1 88/7/1
f 89/3/1 90/6/1 91/11/1 92/8/1
f 93/1/1 94/2/1 95/3/1 96/4/1
f 97/2/1 98/5/1 99/6/1 100/3/1
f 101/7/1 102/8/1 103/9/1 104/10/1
f 105/8/1 106/11/1 107/12/1 108/9/1
f 109/13/1 110/14/1 111/2/1 112/1/1
f 113/14/1 114/15/1 115/5/1 116/2/1
f 117/4/1 118/3/1 119/8/1 120/7/1
f 121/3/1 122/6/1 123/11/1 124/8/1
f 125/1/1 126/2/1 127/3/1 128/4/1
f 129/2/1 130/5/1 131/6/1 132/3/1
f 133/7/1 134/8/1 135/9/1 136/10/1
f 137/8/1 138/11/1 139/12/1 140/9/1
f 141/13/1 142/14/1 143/2/1 144/1/1
f 145/14/1 146/15/1 147/5/1 148/2/1
f 149/4/1 150/3/1 151/8/1 152/7/1
f 153/3/1 154/6/1 155/11/1 156/8/1

