# Tiled2Unity generated file. Do not modify by hand.
# Wavefront file for 'Bar_Interior_mesh_0002.obj'

# Vertices (Count = 600)
v 0 -1 0
v -1 -1 0
v -1 0 0
v 0 0 0
v -1 -1 0
v -2 -1 0
v -2 0 0
v -1 0 0
v -2 -1 0
v -3 -1 0
v -3 0 0
v -2 0 0
v -3 -1 0
v -4 -1 0
v -4 0 0
v -3 0 0
v -4 -1 0
v -5 -1 0
v -5 0 0
v -4 0 0
v -5 -1 0
v -6 -1 0
v -6 0 0
v -5 0 0
v -6 -1 0
v -7 -1 0
v -7 0 0
v -6 0 0
v -7 -1 0
v -8 -1 0
v -8 0 0
v -7 0 0
v -8 -1 0
v -9 -1 0
v -9 0 0
v -8 0 0
v -9 -1 0
v -10 -1 0
v -10 0 0
v -9 0 0
v -10 -1 0
v -11 -1 0
v -11 0 0
v -10 0 0
v -13 -1 0
v -14 -1 0
v -14 0 0
v -13 0 0
v -14 -1 0
v -15 -1 0
v -15 0 0
v -14 0 0
v -15 -1 0
v -16 -1 0
v -16 0 0
v -15 0 0
v -16 -1 0
v -17 -1 0
v -17 0 0
v -16 0 0
v -17 -1 0
v -18 -1 0
v -18 0 0
v -17 0 0
v -18 -1 0
v -19 -1 0
v -19 0 0
v -18 0 0
v -19 -1 0
v -20 -1 0
v -20 0 0
v -19 0 0
v -20 -1 0
v -21 -1 0
v -21 0 0
v -20 0 0
v -21 -1 0
v -22 -1 0
v -22 0 0
v -21 0 0
v -22 -1 0
v -23 -1 0
v -23 0 0
v -22 0 0
v -23 -1 0
v -24 -1 0
v -24 0 0
v -23 0 0
v -24 -1 0
v -25 -1 0
v -25 0 0
v -24 0 0
v -25 -1 0
v -26 -1 0
v -26 0 0
v -25 0 0
v -26 -1 0
v -27 -1 0
v -27 0 0
v -26 0 0
v -27 -1 0
v -28 -1 0
v -28 0 0
v -27 0 0
v -28 -1 0
v -29 -1 0
v -29 0 0
v -28 0 0
v -29 -1 0
v -30 -1 0
v -30 0 0
v -29 0 0
v -30 -1 0
v -31 -1 0
v -31 0 0
v -30 0 0
v -31 -1 0
v -32 -1 0
v -32 0 0
v -31 0 0
v 0 -2 0
v -1 -2 0
v -1 -1 0
v 0 -1 0
v -1 -2 0
v -2 -2 0
v -2 -1 0
v -1 -1 0
v -2 -2 0
v -3 -2 0
v -3 -1 0
v -2 -1 0
v -3 -2 0
v -4 -2 0
v -4 -1 0
v -3 -1 0
v -4 -2 0
v -5 -2 0
v -5 -1 0
v -4 -1 0
v -5 -2 0
v -6 -2 0
v -6 -1 0
v -5 -1 0
v -6 -2 0
v -7 -2 0
v -7 -1 0
v -6 -1 0
v -7 -2 0
v -8 -2 0
v -8 -1 0
v -7 -1 0
v -8 -2 0
v -9 -2 0
v -9 -1 0
v -8 -1 0
v -9 -2 0
v -10 -2 0
v -10 -1 0
v -9 -1 0
v -10 -2 0
v -11 -2 0
v -11 -1 0
v -10 -1 0
v -13 -2 0
v -14 -2 0
v -14 -1 0
v -13 -1 0
v -14 -2 0
v -15 -2 0
v -15 -1 0
v -14 -1 0
v -15 -2 0
v -16 -2 0
v -16 -1 0
v -15 -1 0
v -16 -2 0
v -17 -2 0
v -17 -1 0
v -16 -1 0
v -17 -2 0
v -18 -2 0
v -18 -1 0
v -17 -1 0
v -18 -2 0
v -19 -2 0
v -19 -1 0
v -18 -1 0
v -19 -2 0
v -20 -2 0
v -20 -1 0
v -19 -1 0
v -20 -2 0
v -21 -2 0
v -21 -1 0
v -20 -1 0
v -21 -2 0
v -22 -2 0
v -22 -1 0
v -21 -1 0
v -22 -2 0
v -23 -2 0
v -23 -1 0
v -22 -1 0
v -23 -2 0
v -24 -2 0
v -24 -1 0
v -23 -1 0
v -24 -2 0
v -25 -2 0
v -25 -1 0
v -24 -1 0
v -25 -2 0
v -26 -2 0
v -26 -1 0
v -25 -1 0
v -26 -2 0
v -27 -2 0
v -27 -1 0
v -26 -1 0
v -27 -2 0
v -28 -2 0
v -28 -1 0
v -27 -1 0
v -28 -2 0
v -29 -2 0
v -29 -1 0
v -28 -1 0
v -29 -2 0
v -30 -2 0
v -30 -1 0
v -29 -1 0
v -30 -2 0
v -31 -2 0
v -31 -1 0
v -30 -1 0
v -31 -2 0
v -32 -2 0
v -32 -1 0
v -31 -1 0
v 0 -3 0
v -1 -3 0
v -1 -2 0
v 0 -2 0
v -31 -3 0
v -32 -3 0
v -32 -2 0
v -31 -2 0
v 0 -4 0
v -1 -4 0
v -1 -3 0
v 0 -3 0
v -31 -4 0
v -32 -4 0
v -32 -3 0
v -31 -3 0
v 0 -5 0
v -1 -5 0
v -1 -4 0
v 0 -4 0
v 0 -6 0
v -1 -6 0
v -1 -5 0
v 0 -5 0
v 0 -7 0
v -1 -7 0
v -1 -6 0
v 0 -6 0
v -31 -7 0
v -32 -7 0
v -32 -6 0
v -31 -6 0
v 0 -8 0
v -1 -8 0
v -1 -7 0
v 0 -7 0
v -31 -8 0
v -32 -8 0
v -32 -7 0
v -31 -7 0
v 0 -9 0
v -1 -9 0
v -1 -8 0
v 0 -8 0
v -31 -9 0
v -32 -9 0
v -32 -8 0
v -31 -8 0
v 0 -10 0
v -1 -10 0
v -1 -9 0
v 0 -9 0
v -31 -10 0
v -32 -10 0
v -32 -9 0
v -31 -9 0
v 0 -11 0
v -1 -11 0
v -1 -10 0
v 0 -10 0
v -31 -11 0
v -32 -11 0
v -32 -10 0
v -31 -10 0
v 0 -12 0
v -1 -12 0
v -1 -11 0
v 0 -11 0
v -31 -12 0
v -32 -12 0
v -32 -11 0
v -31 -11 0
v 0 -13 0
v -1 -13 0
v -1 -12 0
v 0 -12 0
v -31 -13 0
v -32 -13 0
v -32 -12 0
v -31 -12 0
v 0 -14 0
v -1 -14 0
v -1 -13 0
v 0 -13 0
v -31 -14 0
v -32 -14 0
v -32 -13 0
v -31 -13 0
v 0 -15 0
v -1 -15 0
v -1 -14 0
v 0 -14 0
v -31 -15 0
v -32 -15 0
v -32 -14 0
v -31 -14 0
v 0 -16 0
v -1 -16 0
v -1 -15 0
v 0 -15 0
v -31 -16 0
v -32 -16 0
v -32 -15 0
v -31 -15 0
v 0 -17 0
v -1 -17 0
v -1 -16 0
v 0 -16 0
v -1 -17 0
v -2 -17 0
v -2 -16 0
v -1 -16 0
v -2 -17 0
v -3 -17 0
v -3 -16 0
v -2 -16 0
v -3 -17 0
v -4 -17 0
v -4 -16 0
v -3 -16 0
v -4 -17 0
v -5 -17 0
v -5 -16 0
v -4 -16 0
v -5 -17 0
v -6 -17 0
v -6 -16 0
v -5 -16 0
v -6 -17 0
v -7 -17 0
v -7 -16 0
v -6 -16 0
v -7 -17 0
v -8 -17 0
v -8 -16 0
v -7 -16 0
v -8 -17 0
v -9 -17 0
v -9 -16 0
v -8 -16 0
v -9 -17 0
v -10 -17 0
v -10 -16 0
v -9 -16 0
v -10 -17 0
v -11 -17 0
v -11 -16 0
v -10 -16 0
v -11 -17 0
v -12 -17 0
v -12 -16 0
v -11 -16 0
v -12 -17 0
v -13 -17 0
v -13 -16 0
v -12 -16 0
v -13 -17 0
v -14 -17 0
v -14 -16 0
v -13 -16 0
v -14 -17 0
v -15 -17 0
v -15 -16 0
v -14 -16 0
v -15 -17 0
v -16 -17 0
v -16 -16 0
v -15 -16 0
v -16 -17 0
v -17 -17 0
v -17 -16 0
v -16 -16 0
v -17 -17 0
v -18 -17 0
v -18 -16 0
v -17 -16 0
v -18 -17 0
v -19 -17 0
v -19 -16 0
v -18 -16 0
v -19 -17 0
v -20 -17 0
v -20 -16 0
v -19 -16 0
v -20 -17 0
v -21 -17 0
v -21 -16 0
v -20 -16 0
v -21 -17 0
v -22 -17 0
v -22 -16 0
v -21 -16 0
v -22 -17 0
v -23 -17 0
v -23 -16 0
v -22 -16 0
v -23 -17 0
v -24 -17 0
v -24 -16 0
v -23 -16 0
v -24 -17 0
v -25 -17 0
v -25 -16 0
v -24 -16 0
v -25 -17 0
v -26 -17 0
v -26 -16 0
v -25 -16 0
v -26 -17 0
v -27 -17 0
v -27 -16 0
v -26 -16 0
v -27 -17 0
v -28 -17 0
v -28 -16 0
v -27 -16 0
v -28 -17 0
v -29 -17 0
v -29 -16 0
v -28 -16 0
v -29 -17 0
v -30 -17 0
v -30 -16 0
v -29 -16 0
v -30 -17 0
v -31 -17 0
v -31 -16 0
v -30 -16 0
v -31 -17 0
v -32 -17 0
v -32 -16 0
v -31 -16 0
v 0 -18 0
v -1 -18 0
v -1 -17 0
v 0 -17 0
v -1 -18 0
v -2 -18 0
v -2 -17 0
v -1 -17 0
v -2 -18 0
v -3 -18 0
v -3 -17 0
v -2 -17 0
v -3 -18 0
v -4 -18 0
v -4 -17 0
v -3 -17 0
v -4 -18 0
v -5 -18 0
v -5 -17 0
v -4 -17 0
v -5 -18 0
v -6 -18 0
v -6 -17 0
v -5 -17 0
v -6 -18 0
v -7 -18 0
v -7 -17 0
v -6 -17 0
v -7 -18 0
v -8 -18 0
v -8 -17 0
v -7 -17 0
v -8 -18 0
v -9 -18 0
v -9 -17 0
v -8 -17 0
v -9 -18 0
v -10 -18 0
v -10 -17 0
v -9 -17 0
v -10 -18 0
v -11 -18 0
v -11 -17 0
v -10 -17 0
v -11 -18 0
v -12 -18 0
v -12 -17 0
v -11 -17 0
v -12 -18 0
v -13 -18 0
v -13 -17 0
v -12 -17 0
v -13 -18 0
v -14 -18 0
v -14 -17 0
v -13 -17 0
v -14 -18 0
v -15 -18 0
v -15 -17 0
v -14 -17 0
v -15 -18 0
v -16 -18 0
v -16 -17 0
v -15 -17 0
v -16 -18 0
v -17 -18 0
v -17 -17 0
v -16 -17 0
v -17 -18 0
v -18 -18 0
v -18 -17 0
v -17 -17 0
v -18 -18 0
v -19 -18 0
v -19 -17 0
v -18 -17 0
v -19 -18 0
v -20 -18 0
v -20 -17 0
v -19 -17 0
v -20 -18 0
v -21 -18 0
v -21 -17 0
v -20 -17 0
v -21 -18 0
v -22 -18 0
v -22 -17 0
v -21 -17 0
v -22 -18 0
v -23 -18 0
v -23 -17 0
v -22 -17 0
v -23 -18 0
v -24 -18 0
v -24 -17 0
v -23 -17 0
v -24 -18 0
v -25 -18 0
v -25 -17 0
v -24 -17 0
v -25 -18 0
v -26 -18 0
v -26 -17 0
v -25 -17 0
v -26 -18 0
v -27 -18 0
v -27 -17 0
v -26 -17 0
v -27 -18 0
v -28 -18 0
v -28 -17 0
v -27 -17 0
v -28 -18 0
v -29 -18 0
v -29 -17 0
v -28 -17 0
v -29 -18 0
v -30 -18 0
v -30 -17 0
v -29 -17 0
v -30 -18 0
v -31 -18 0
v -31 -17 0
v -30 -17 0
v -31 -18 0
v -32 -18 0
v -32 -17 0
v -31 -17 0

# Texture cooridinates (Count = 37)
vt 0 0.625
vt 0.02777778 0.625
vt 0.02777778 0.6666666
vt 0 0.6666666
vt 0.05555556 0.625
vt 0.05555556 0.6666666
vt 0.08333334 0.625
vt 0.08333334 0.6666666
vt 0.1111111 0.625
vt 0.1111111 0.6666666
vt 0.1388889 0.625
vt 0.1388889 0.6666666
vt 0.1666667 0.625
vt 0.1666667 0.6666666
vt 0 0.5833334
vt 0.02777778 0.5833334
vt 0.05555556 0.5833334
vt 0.08333334 0.5833334
vt 0.1111111 0.5833334
vt 0.1388889 0.5833334
vt 0.1666667 0.5833334
vt 0 0.5416666
vt 0.02777778 0.5416666
vt 0.1388889 0.5416666
vt 0.1666667 0.5416666
vt 0 0.5
vt 0.02777778 0.5
vt 0 0.4583333
vt 0.02777778 0.4583333
vt 0.1388889 0.4583333
vt 0.1666667 0.4583333
vt 0.1666667 0.5
vt 0.1388889 0.5
vt 0 0.4166667
vt 0.02777778 0.4166667
vt 0.1388889 0.4166667
vt 0.1666667 0.4166667

# Normal
vn 0 0 -1

# Mesh description
g Bar_Interior_mesh_0002

# Faces
f 1/1/1 2/2/1 3/3/1 4/4/1
f 5/2/1 6/5/1 7/6/1 8/3/1
f 9/2/1 10/5/1 11/6/1 12/3/1
f 13/2/1 14/5/1 15/6/1 16/3/1
f 17/2/1 18/5/1 19/6/1 20/3/1
f 21/2/1 22/5/1 23/6/1 24/3/1
f 25/2/1 26/5/1 27/6/1 28/3/1
f 29/2/1 30/5/1 31/6/1 32/3/1
f 33/2/1 34/5/1 35/6/1 36/3/1
f 37/2/1 38/5/1 39/6/1 40/3/1
f 41/2/1 42/5/1 43/6/1 44/3/1
f 45/2/1 46/5/1 47/6/1 48/3/1
f 49/2/1 50/5/1 51/6/1 52/3/1
f 53/2/1 54/5/1 55/6/1 56/3/1
f 57/2/1 58/5/1 59/6/1 60/3/1
f 61/2/1 62/5/1 63/6/1 64/3/1
f 65/2/1 66/5/1 67/6/1 68/3/1
f 69/2/1 70/5/1 71/6/1 72/3/1
f 73/2/1 74/5/1 75/6/1 76/3/1
f 77/2/1 78/5/1 79/6/1 80/3/1
f 81/2/1 82/5/1 83/6/1 84/3/1
f 85/2/1 86/5/1 87/6/1 88/3/1
f 89/2/1 90/5/1 91/6/1 92/3/1
f 93/2/1 94/5/1 95/6/1 96/3/1
f 97/2/1 98/5/1 99/6/1 100/3/1
f 101/2/1 102/5/1 103/6/1 104/3/1
f 105/5/1 106/7/1 107/8/1 108/6/1
f 109/7/1 110/9/1 111/10/1 112/8/1
f 113/9/1 114/11/1 115/12/1 116/10/1
f 117/11/1 118/13/1 119/14/1 120/12/1
f 121/15/1 122/16/1 123/2/1 124/1/1
f 125/16/1 126/17/1 127/5/1 128/2/1
f 129/16/1 130/17/1 131/5/1 132/2/1
f 133/16/1 134/17/1 135/5/1 136/2/1
f 137/16/1 138/17/1 139/5/1 140/2/1
f 141/16/1 142/17/1 143/5/1 144/2/1
f 145/16/1 146/17/1 147/5/1 148/2/1
f 149/16/1 150/17/1 151/5/1 152/2/1
f 153/16/1 154/17/1 155/5/1 156/2/1
f 157/16/1 158/17/1 159/5/1 160/2/1
f 161/16/1 162/17/1 163/5/1 164/2/1
f 165/16/1 166/17/1 167/5/1 168/2/1
f 169/16/1 170/17/1 171/5/1 172/2/1
f 173/16/1 174/17/1 175/5/1 176/2/1
f 177/16/1 178/17/1 179/5/1 180/2/1
f 181/16/1 182/17/1 183/5/1 184/2/1
f 185/16/1 186/17/1 187/5/1 188/2/1
f 189/16/1 190/17/1 191/5/1 192/2/1
f 193/16/1 194/17/1 195/5/1 196/2/1
f 197/16/1 198/17/1 199/5/1 200/2/1
f 201/16/1 202/17/1 203/5/1 204/2/1
f 205/16/1 206/17/1 207/5/1 208/2/1
f 209/16/1 210/17/1 211/5/1 212/2/1
f 213/16/1 214/17/1 215/5/1 216/2/1
f 217/16/1 218/17/1 219/5/1 220/2/1
f 221/16/1 222/17/1 223/5/1 224/2/1
f 225/17/1 226/18/1 227/7/1 228/5/1
f 229/18/1 230/19/1 231/9/1 232/7/1
f 233/19/1 234/20/1 235/11/1 236/9/1
f 237/20/1 238/21/1 239/13/1 240/11/1
f 241/22/1 242/23/1 243/16/1 244/15/1
f 245/24/1 246/25/1 247/21/1 248/20/1
f 249/22/1 250/23/1 251/16/1 252/15/1
f 253/24/1 254/25/1 255/21/1 256/20/1
f 257/22/1 258/23/1 259/16/1 260/15/1
f 261/22/1 262/23/1 263/16/1 264/15/1
f 265/22/1 266/23/1 267/16/1 268/15/1
f 269/24/1 270/25/1 271/21/1 272/20/1
f 273/22/1 274/23/1 275/16/1 276/15/1
f 277/24/1 278/25/1 279/21/1 280/20/1
f 281/22/1 282/23/1 283/16/1 284/15/1
f 285/24/1 286/25/1 287/21/1 288/20/1
f 289/26/1 290/27/1 291/23/1 292/22/1
f 293/24/1 294/25/1 295/21/1 296/20/1
f 297/22/1 298/23/1 299/16/1 300/15/1
f 301/24/1 302/25/1 303/21/1 304/20/1
f 305/22/1 306/23/1 307/16/1 308/15/1
f 309/24/1 310/25/1 311/21/1 312/20/1
f 313/22/1 314/23/1 315/16/1 316/15/1
f 317/24/1 318/25/1 319/21/1 320/20/1
f 321/22/1 322/23/1 323/16/1 324/15/1
f 325/24/1 326/25/1 327/21/1 328/20/1
f 329/22/1 330/23/1 331/16/1 332/15/1
f 333/24/1 334/25/1 335/21/1 336/20/1
f 337/26/1 338/27/1 339/23/1 340/22/1
f 341/24/1 342/25/1 343/21/1 344/20/1
f 345/28/1 346/29/1 347/27/1 348/26/1
f 349/2/1 350/5/1 351/6/1 352/3/1
f 353/2/1 354/5/1 355/6/1 356/3/1
f 357/2/1 358/5/1 359/6/1 360/3/1
f 361/2/1 362/5/1 363/6/1 364/3/1
f 365/2/1 366/5/1 367/6/1 368/3/1
f 369/2/1 370/5/1 371/6/1 372/3/1
f 373/2/1 374/5/1 375/6/1 376/3/1
f 377/2/1 378/5/1 379/6/1 380/3/1
f 381/2/1 382/5/1 383/6/1 384/3/1
f 385/2/1 386/5/1 387/6/1 388/3/1
f 389/2/1 390/5/1 391/6/1 392/3/1
f 393/2/1 394/5/1 395/6/1 396/3/1
f 397/2/1 398/5/1 399/6/1 400/3/1
f 401/2/1 402/5/1 403/6/1 404/3/1
f 405/2/1 406/5/1 407/6/1 408/3/1
f 409/2/1 410/5/1 411/6/1 412/3/1
f 413/2/1 414/5/1 415/6/1 416/3/1
f 417/2/1 418/5/1 419/6/1 420/3/1
f 421/2/1 422/5/1 423/6/1 424/3/1
f 425/2/1 426/5/1 427/6/1 428/3/1
f 429/2/1 430/5/1 431/6/1 432/3/1
f 433/2/1 434/5/1 435/6/1 436/3/1
f 437/2/1 438/5/1 439/6/1 440/3/1
f 441/2/1 442/5/1 443/6/1 444/3/1
f 445/2/1 446/5/1 447/6/1 448/3/1
f 449/2/1 450/5/1 451/6/1 452/3/1
f 453/2/1 454/5/1 455/6/1 456/3/1
f 457/5/1 458/7/1 459/8/1 460/6/1
f 461/7/1 462/9/1 463/10/1 464/8/1
f 465/9/1 466/11/1 467/12/1 468/10/1
f 469/30/1 470/31/1 471/32/1 472/33/1
f 473/34/1 474/35/1 475/29/1 476/28/1
f 477/16/1 478/17/1 479/5/1 480/2/1
f 481/16/1 482/17/1 483/5/1 484/2/1
f 485/16/1 486/17/1 487/5/1 488/2/1
f 489/16/1 490/17/1 491/5/1 492/2/1
f 493/16/1 494/17/1 495/5/1 496/2/1
f 497/16/1 498/17/1 499/5/1 500/2/1
f 501/16/1 502/17/1 503/5/1 504/2/1
f 505/16/1 506/17/1 507/5/1 508/2/1
f 509/16/1 510/17/1 511/5/1 512/2/1
f 513/16/1 514/17/1 515/5/1 516/2/1
f 517/16/1 518/17/1 519/5/1 520/2/1
f 521/16/1 522/17/1 523/5/1 524/2/1
f 525/16/1 526/17/1 527/5/1 528/2/1
f 529/16/1 530/17/1 531/5/1 532/2/1
f 533/16/1 534/17/1 535/5/1 536/2/1
f 537/16/1 538/17/1 539/5/1 540/2/1
f 541/16/1 542/17/1 543/5/1 544/2/1
f 545/16/1 546/17/1 547/5/1 548/2/1
f 549/16/1 550/17/1 551/5/1 552/2/1
f 553/16/1 554/17/1 555/5/1 556/2/1
f 557/16/1 558/17/1 559/5/1 560/2/1
f 561/16/1 562/17/1 563/5/1 564/2/1
f 565/16/1 566/17/1 567/5/1 568/2/1
f 569/16/1 570/17/1 571/5/1 572/2/1
f 573/16/1 574/17/1 575/5/1 576/2/1
f 577/16/1 578/17/1 579/5/1 580/2/1
f 581/16/1 582/17/1 583/5/1 584/2/1
f 585/17/1 586/18/1 587/7/1 588/5/1
f 589/18/1 590/19/1 591/9/1 592/7/1
f 593/19/1 594/20/1 595/11/1 596/9/1
f 597/36/1 598/37/1 599/31/1 600/30/1

