# Tiled2Unity generated file. Do not modify by hand.
# Wavefront file for 'BarEXT1.1_mesh_0010.obj'

# Vertices (Count = 668)
v -118 -1 0
v -119 -1 0
v -119 0 0
v -118 0 0
v -119 -1 0
v -120 -1 0
v -120 0 0
v -119 0 0
v -38 -2 0
v -39 -2 0
v -39 -1 0
v -38 -1 0
v -39 -2 0
v -40 -2 0
v -40 -1 0
v -39 -1 0
v -40 -2 0
v -41 -2 0
v -41 -1 0
v -40 -1 0
v -41 -2 0
v -42 -2 0
v -42 -1 0
v -41 -1 0
v -118 -2 0
v -119 -2 0
v -119 -1 0
v -118 -1 0
v -119 -2 0
v -120 -2 0
v -120 -1 0
v -119 -1 0
v -38 -3 0
v -39 -3 0
v -39 -2 0
v -38 -2 0
v -39 -3 0
v -40 -3 0
v -40 -2 0
v -39 -2 0
v -40 -3 0
v -41 -3 0
v -41 -2 0
v -40 -2 0
v -41 -3 0
v -42 -3 0
v -42 -2 0
v -41 -2 0
v -38 -4 0
v -39 -4 0
v -39 -3 0
v -38 -3 0
v -39 -4 0
v -40 -4 0
v -40 -3 0
v -39 -3 0
v -40 -4 0
v -41 -4 0
v -41 -3 0
v -40 -3 0
v -41 -4 0
v -42 -4 0
v -42 -3 0
v -41 -3 0
v -28 -5 0
v -29 -5 0
v -29 -4 0
v -28 -4 0
v -29 -5 0
v -30 -5 0
v -30 -4 0
v -29 -4 0
v -42 -5 0
v -43 -5 0
v -43 -4 0
v -42 -4 0
v -43 -5 0
v -44 -5 0
v -44 -4 0
v -43 -4 0
v -56 -5 0
v -57 -5 0
v -57 -4 0
v -56 -4 0
v -57 -5 0
v -58 -5 0
v -58 -4 0
v -57 -4 0
v -62 -5 0
v -63 -5 0
v -63 -4 0
v -62 -4 0
v -63 -5 0
v -64 -5 0
v -64 -4 0
v -63 -4 0
v -71 -5 0
v -72 -5 0
v -72 -4 0
v -71 -4 0
v -72 -5 0
v -73 -5 0
v -73 -4 0
v -72 -4 0
v -80 -5 0
v -81 -5 0
v -81 -4 0
v -80 -4 0
v -81 -5 0
v -82 -5 0
v -82 -4 0
v -81 -4 0
v -86 -5 0
v -87 -5 0
v -87 -4 0
v -86 -4 0
v -87 -5 0
v -88 -5 0
v -88 -4 0
v -87 -4 0
v -88 -5 0
v -89 -5 0
v -89 -4 0
v -88 -4 0
v -89 -5 0
v -90 -5 0
v -90 -4 0
v -89 -4 0
v -90 -5 0
v -91 -5 0
v -91 -4 0
v -90 -4 0
v -91 -5 0
v -92 -5 0
v -92 -4 0
v -91 -4 0
v -107 -5 0
v -108 -5 0
v -108 -4 0
v -107 -4 0
v -108 -5 0
v -109 -5 0
v -109 -4 0
v -108 -4 0
v -109 -5 0
v -110 -5 0
v -110 -4 0
v -109 -4 0
v -110 -5 0
v -111 -5 0
v -111 -4 0
v -110 -4 0
v -116 -5 0
v -117 -5 0
v -117 -4 0
v -116 -4 0
v -117 -5 0
v -118 -5 0
v -118 -4 0
v -117 -4 0
v -28 -6 0
v -29 -6 0
v -29 -5 0
v -28 -5 0
v -29 -6 0
v -30 -6 0
v -30 -5 0
v -29 -5 0
v -42 -6 0
v -43 -6 0
v -43 -5 0
v -42 -5 0
v -43 -6 0
v -44 -6 0
v -44 -5 0
v -43 -5 0
v -56 -6 0
v -57 -6 0
v -57 -5 0
v -56 -5 0
v -57 -6 0
v -58 -6 0
v -58 -5 0
v -57 -5 0
v -62 -6 0
v -63 -6 0
v -63 -5 0
v -62 -5 0
v -63 -6 0
v -64 -6 0
v -64 -5 0
v -63 -5 0
v -71 -6 0
v -72 -6 0
v -72 -5 0
v -71 -5 0
v -72 -6 0
v -73 -6 0
v -73 -5 0
v -72 -5 0
v -80 -6 0
v -81 -6 0
v -81 -5 0
v -80 -5 0
v -81 -6 0
v -82 -6 0
v -82 -5 0
v -81 -5 0
v -86 -6 0
v -87 -6 0
v -87 -5 0
v -86 -5 0
v -87 -6 0
v -88 -6 0
v -88 -5 0
v -87 -5 0
v -88 -6 0
v -89 -6 0
v -89 -5 0
v -88 -5 0
v -89 -6 0
v -90 -6 0
v -90 -5 0
v -89 -5 0
v -90 -6 0
v -91 -6 0
v -91 -5 0
v -90 -5 0
v -91 -6 0
v -92 -6 0
v -92 -5 0
v -91 -5 0
v -107 -6 0
v -108 -6 0
v -108 -5 0
v -107 -5 0
v -108 -6 0
v -109 -6 0
v -109 -5 0
v -108 -5 0
v -109 -6 0
v -110 -6 0
v -110 -5 0
v -109 -5 0
v -110 -6 0
v -111 -6 0
v -111 -5 0
v -110 -5 0
v -116 -6 0
v -117 -6 0
v -117 -5 0
v -116 -5 0
v -117 -6 0
v -118 -6 0
v -118 -5 0
v -117 -5 0
v -65 -8 0
v -66 -8 0
v -66 -7 0
v -65 -7 0
v -83 -8 0
v -84 -8 0
v -84 -7 0
v -83 -7 0
v -63 -9 0
v -64 -9 0
v -64 -8 0
v -63 -8 0
v -64 -9 0
v -65 -9 0
v -65 -8 0
v -64 -8 0
v -65 -9 0
v -66 -9 0
v -66 -8 0
v -65 -8 0
v -61 -10 0
v -62 -10 0
v -62 -9 0
v -61 -9 0
v -62 -10 0
v -63 -10 0
v -63 -9 0
v -62 -9 0
v -63 -10 0
v -64 -10 0
v -64 -9 0
v -63 -9 0
v -64 -10 0
v -65 -10 0
v -65 -9 0
v -64 -9 0
v -65 -10 0
v -66 -10 0
v -66 -9 0
v -65 -9 0
v -66 -10 0
v -67 -10 0
v -67 -9 0
v -66 -9 0
v -67 -10 0
v -68 -10 0
v -68 -9 0
v -67 -9 0
v -68 -10 0
v -69 -10 0
v -69 -9 0
v -68 -9 0
v -69 -10 0
v -70 -10 0
v -70 -9 0
v -69 -9 0
v -70 -10 0
v -71 -10 0
v -71 -9 0
v -70 -9 0
v -71 -10 0
v -72 -10 0
v -72 -9 0
v -71 -9 0
v -72 -10 0
v -73 -10 0
v -73 -9 0
v -72 -9 0
v -73 -10 0
v -74 -10 0
v -74 -9 0
v -73 -9 0
v -74 -10 0
v -75 -10 0
v -75 -9 0
v -74 -9 0
v -75 -10 0
v -76 -10 0
v -76 -9 0
v -75 -9 0
v -76 -10 0
v -77 -10 0
v -77 -9 0
v -76 -9 0
v -77 -10 0
v -78 -10 0
v -78 -9 0
v -77 -9 0
v -78 -10 0
v -79 -10 0
v -79 -9 0
v -78 -9 0
v -79 -10 0
v -80 -10 0
v -80 -9 0
v -79 -9 0
v -80 -10 0
v -81 -10 0
v -81 -9 0
v -80 -9 0
v -81 -10 0
v -82 -10 0
v -82 -9 0
v -81 -9 0
v -82 -10 0
v -83 -10 0
v -83 -9 0
v -82 -9 0
v -68 -14 0
v -69 -14 0
v -69 -13 0
v -68 -13 0
v -69 -14 0
v -70 -14 0
v -70 -13 0
v -69 -13 0
v -68 -15 0
v -69 -15 0
v -69 -14 0
v -68 -14 0
v -69 -15 0
v -70 -15 0
v -70 -14 0
v -69 -14 0
v -71 -15 0
v -72 -15 0
v -72 -14 0
v -71 -14 0
v -72 -15 0
v -73 -15 0
v -73 -14 0
v -72 -14 0
v -87 -15 0
v -88 -15 0
v -88 -14 0
v -87 -14 0
v -88 -15 0
v -89 -15 0
v -89 -14 0
v -88 -14 0
v -102 -15 0
v -103 -15 0
v -103 -14 0
v -102 -14 0
v -103 -15 0
v -104 -15 0
v -104 -14 0
v -103 -14 0
v -110 -15 0
v -111 -15 0
v -111 -14 0
v -110 -14 0
v -111 -15 0
v -112 -15 0
v -112 -14 0
v -111 -14 0
v -112 -15 0
v -113 -15 0
v -113 -14 0
v -112 -14 0
v -113 -15 0
v -114 -15 0
v -114 -14 0
v -113 -14 0
v -71 -16 0
v -72 -16 0
v -72 -15 0
v -71 -15 0
v -72 -16 0
v -73 -16 0
v -73 -15 0
v -72 -15 0
v -87 -16 0
v -88 -16 0
v -88 -15 0
v -87 -15 0
v -88 -16 0
v -89 -16 0
v -89 -15 0
v -88 -15 0
v -102 -16 0
v -103 -16 0
v -103 -15 0
v -102 -15 0
v -103 -16 0
v -104 -16 0
v -104 -15 0
v -103 -15 0
v -110 -16 0
v -111 -16 0
v -111 -15 0
v -110 -15 0
v -111 -16 0
v -112 -16 0
v -112 -15 0
v -111 -15 0
v -112 -16 0
v -113 -16 0
v -113 -15 0
v -112 -15 0
v -113 -16 0
v -114 -16 0
v -114 -15 0
v -113 -15 0
v -25 -17 0
v -26 -17 0
v -26 -16 0
v -25 -16 0
v -26 -17 0
v -27 -17 0
v -27 -16 0
v -26 -16 0
v -27 -17 0
v -28 -17 0
v -28 -16 0
v -27 -16 0
v -28 -17 0
v -29 -17 0
v -29 -16 0
v -28 -16 0
v -56 -17 0
v -57 -17 0
v -57 -16 0
v -56 -16 0
v -57 -17 0
v -58 -17 0
v -58 -16 0
v -57 -16 0
v -58 -17 0
v -59 -17 0
v -59 -16 0
v -58 -16 0
v -59 -17 0
v -60 -17 0
v -60 -16 0
v -59 -16 0
v -76 -17 0
v -77 -17 0
v -77 -16 0
v -76 -16 0
v -77 -17 0
v -78 -17 0
v -78 -16 0
v -77 -16 0
v -78 -17 0
v -79 -17 0
v -79 -16 0
v -78 -16 0
v -79 -17 0
v -80 -17 0
v -80 -16 0
v -79 -16 0
v -89 -17 0
v -90 -17 0
v -90 -16 0
v -89 -16 0
v -90 -17 0
v -91 -17 0
v -91 -16 0
v -90 -16 0
v -91 -17 0
v -92 -17 0
v -92 -16 0
v -91 -16 0
v -92 -17 0
v -93 -17 0
v -93 -16 0
v -92 -16 0
v -110 -17 0
v -111 -17 0
v -111 -16 0
v -110 -16 0
v -111 -17 0
v -112 -17 0
v -112 -16 0
v -111 -16 0
v -112 -17 0
v -113 -17 0
v -113 -16 0
v -112 -16 0
v -113 -17 0
v -114 -17 0
v -114 -16 0
v -113 -16 0
v -25 -18 0
v -26 -18 0
v -26 -17 0
v -25 -17 0
v -26 -18 0
v -27 -18 0
v -27 -17 0
v -26 -17 0
v -27 -18 0
v -28 -18 0
v -28 -17 0
v -27 -17 0
v -28 -18 0
v -29 -18 0
v -29 -17 0
v -28 -17 0
v -56 -18 0
v -57 -18 0
v -57 -17 0
v -56 -17 0
v -57 -18 0
v -58 -18 0
v -58 -17 0
v -57 -17 0
v -58 -18 0
v -59 -18 0
v -59 -17 0
v -58 -17 0
v -59 -18 0
v -60 -18 0
v -60 -17 0
v -59 -17 0
v -76 -18 0
v -77 -18 0
v -77 -17 0
v -76 -17 0
v -77 -18 0
v -78 -18 0
v -78 -17 0
v -77 -17 0
v -78 -18 0
v -79 -18 0
v -79 -17 0
v -78 -17 0
v -79 -18 0
v -80 -18 0
v -80 -17 0
v -79 -17 0
v -89 -18 0
v -90 -18 0
v -90 -17 0
v -89 -17 0
v -90 -18 0
v -91 -18 0
v -91 -17 0
v -90 -17 0
v -91 -18 0
v -92 -18 0
v -92 -17 0
v -91 -17 0
v -92 -18 0
v -93 -18 0
v -93 -17 0
v -92 -17 0
v -25 -19 0
v -26 -19 0
v -26 -18 0
v -25 -18 0
v -26 -19 0
v -27 -19 0
v -27 -18 0
v -26 -18 0
v -27 -19 0
v -28 -19 0
v -28 -18 0
v -27 -18 0
v -28 -19 0
v -29 -19 0
v -29 -18 0
v -28 -18 0
v -56 -19 0
v -57 -19 0
v -57 -18 0
v -56 -18 0
v -57 -19 0
v -58 -19 0
v -58 -18 0
v -57 -18 0
v -58 -19 0
v -59 -19 0
v -59 -18 0
v -58 -18 0
v -59 -19 0
v -60 -19 0
v -60 -18 0
v -59 -18 0
v -76 -19 0
v -77 -19 0
v -77 -18 0
v -76 -18 0
v -77 -19 0
v -78 -19 0
v -78 -18 0
v -77 -18 0
v -78 -19 0
v -79 -19 0
v -79 -18 0
v -78 -18 0
v -79 -19 0
v -80 -19 0
v -80 -18 0
v -79 -18 0
v -89 -19 0
v -90 -19 0
v -90 -18 0
v -89 -18 0
v -90 -19 0
v -91 -19 0
v -91 -18 0
v -90 -18 0
v -91 -19 0
v -92 -19 0
v -92 -18 0
v -91 -18 0
v -92 -19 0
v -93 -19 0
v -93 -18 0
v -92 -18 0

# Texture cooridinates (Count = 42)
vt 0.8 0.8636364
vt 0.85 0.8636364
vt 0.85 0.9090909
vt 0.8 0.9090909
vt 0.9 0.8636364
vt 0.9 0.9090909
vt 0 0.4090909
vt 0.05 0.4090909
vt 0.05 0.4545454
vt 0 0.4545454
vt 0.1 0.4090909
vt 0.1 0.4545454
vt 0.15 0.4090909
vt 0.15 0.4545454
vt 0.2 0.4090909
vt 0.2 0.4545454
vt 0.8 0.8181818
vt 0.85 0.8181818
vt 0.9 0.8181818
vt 0 0.3636364
vt 0.05 0.3636364
vt 0.1 0.3636364
vt 0.15 0.3636364
vt 0.2 0.3636364
vt 0 0.3181818
vt 0.05 0.3181818
vt 0.1 0.3181818
vt 0.15 0.3181818
vt 0.2 0.3181818
vt 0.6 0.3181818
vt 0.65 0.3181818
vt 0.65 0.3636364
vt 0.6 0.3636364
vt 0.4 0.8636364
vt 0.45 0.8636364
vt 0.45 0.9090909
vt 0.4 0.9090909
vt 0.5 0.8636364
vt 0.5 0.9090909
vt 0.4 0.8181818
vt 0.45 0.8181818
vt 0.5 0.8181818

# Normal
vn 0 0 -1

# Mesh description
g BarEXT1.1_mesh_0010

# Faces
f 1/1/1 2/2/1 3/3/1 4/4/1
f 5/2/1 6/5/1 7/6/1 8/3/1
f 9/7/1 10/8/1 11/9/1 12/10/1
f 13/8/1 14/11/1 15/12/1 16/9/1
f 17/11/1 18/13/1 19/14/1 20/12/1
f 21/13/1 22/15/1 23/16/1 24/14/1
f 25/17/1 26/18/1 27/2/1 28/1/1
f 29/18/1 30/19/1 31/5/1 32/2/1
f 33/20/1 34/21/1 35/8/1 36/7/1
f 37/21/1 38/22/1 39/11/1 40/8/1
f 41/22/1 42/23/1 43/13/1 44/11/1
f 45/23/1 46/24/1 47/15/1 48/13/1
f 49/25/1 50/26/1 51/21/1 52/20/1
f 53/26/1 54/27/1 55/22/1 56/21/1
f 57/27/1 58/28/1 59/23/1 60/22/1
f 61/28/1 62/29/1 63/24/1 64/23/1
f 65/1/1 66/2/1 67/3/1 68/4/1
f 69/2/1 70/5/1 71/6/1 72/3/1
f 73/1/1 74/2/1 75/3/1 76/4/1
f 77/2/1 78/5/1 79/6/1 80/3/1
f 81/1/1 82/2/1 83/3/1 84/4/1
f 85/2/1 86/5/1 87/6/1 88/3/1
f 89/1/1 90/2/1 91/3/1 92/4/1
f 93/2/1 94/5/1 95/6/1 96/3/1
f 97/1/1 98/2/1 99/3/1 100/4/1
f 101/2/1 102/5/1 103/6/1 104/3/1
f 105/1/1 106/2/1 107/3/1 108/4/1
f 109/2/1 110/5/1 111/6/1 112/3/1
f 113/1/1 114/2/1 115/3/1 116/4/1
f 117/2/1 118/5/1 119/6/1 120/3/1
f 121/1/1 122/2/1 123/3/1 124/4/1
f 125/2/1 126/5/1 127/6/1 128/3/1
f 129/1/1 130/2/1 131/3/1 132/4/1
f 133/2/1 134/5/1 135/6/1 136/3/1
f 137/1/1 138/2/1 139/3/1 140/4/1
f 141/2/1 142/5/1 143/6/1 144/3/1
f 145/1/1 146/2/1 147/3/1 148/4/1
f 149/2/1 150/5/1 151/6/1 152/3/1
f 153/1/1 154/2/1 155/3/1 156/4/1
f 157/2/1 158/5/1 159/6/1 160/3/1
f 161/17/1 162/18/1 163/2/1 164/1/1
f 165/18/1 166/19/1 167/5/1 168/2/1
f 169/17/1 170/18/1 171/2/1 172/1/1
f 173/18/1 174/19/1 175/5/1 176/2/1
f 177/17/1 178/18/1 179/2/1 180/1/1
f 181/18/1 182/19/1 183/5/1 184/2/1
f 185/17/1 186/18/1 187/2/1 188/1/1
f 189/18/1 190/19/1 191/5/1 192/2/1
f 193/17/1 194/18/1 195/2/1 196/1/1
f 197/18/1 198/19/1 199/5/1 200/2/1
f 201/17/1 202/18/1 203/2/1 204/1/1
f 205/18/1 206/19/1 207/5/1 208/2/1
f 209/17/1 210/18/1 211/2/1 212/1/1
f 213/18/1 214/19/1 215/5/1 216/2/1
f 217/17/1 218/18/1 219/2/1 220/1/1
f 221/18/1 222/19/1 223/5/1 224/2/1
f 225/17/1 226/18/1 227/2/1 228/1/1
f 229/18/1 230/19/1 231/5/1 232/2/1
f 233/17/1 234/18/1 235/2/1 236/1/1
f 237/18/1 238/19/1 239/5/1 240/2/1
f 241/17/1 242/18/1 243/2/1 244/1/1
f 245/18/1 246/19/1 247/5/1 248/2/1
f 249/17/1 250/18/1 251/2/1 252/1/1
f 253/18/1 254/19/1 255/5/1 256/2/1
f 257/30/1 258/31/1 259/32/1 260/33/1
f 261/30/1 262/31/1 263/32/1 264/33/1
f 265/30/1 266/31/1 267/32/1 268/33/1
f 269/30/1 270/31/1 271/32/1 272/33/1
f 273/30/1 274/31/1 275/32/1 276/33/1
f 277/30/1 278/31/1 279/32/1 280/33/1
f 281/30/1 282/31/1 283/32/1 284/33/1
f 285/30/1 286/31/1 287/32/1 288/33/1
f 289/30/1 290/31/1 291/32/1 292/33/1
f 293/30/1 294/31/1 295/32/1 296/33/1
f 297/30/1 298/31/1 299/32/1 300/33/1
f 301/30/1 302/31/1 303/32/1 304/33/1
f 305/30/1 306/31/1 307/32/1 308/33/1
f 309/30/1 310/31/1 311/32/1 312/33/1
f 313/30/1 314/31/1 315/32/1 316/33/1
f 317/30/1 318/31/1 319/32/1 320/33/1
f 321/30/1 322/31/1 323/32/1 324/33/1
f 325/30/1 326/31/1 327/32/1 328/33/1
f 329/30/1 330/31/1 331/32/1 332/33/1
f 333/30/1 334/31/1 335/32/1 336/33/1
f 337/30/1 338/31/1 339/32/1 340/33/1
f 341/30/1 342/31/1 343/32/1 344/33/1
f 345/30/1 346/31/1 347/32/1 348/33/1
f 349/30/1 350/31/1 351/32/1 352/33/1
f 353/30/1 354/31/1 355/32/1 356/33/1
f 357/30/1 358/31/1 359/32/1 360/33/1
f 361/30/1 362/31/1 363/32/1 364/33/1
f 365/34/1 366/35/1 367/36/1 368/37/1
f 369/35/1 370/38/1 371/39/1 372/36/1
f 373/40/1 374/41/1 375/35/1 376/34/1
f 377/41/1 378/42/1 379/38/1 380/35/1
f 381/1/1 382/2/1 383/3/1 384/4/1
f 385/2/1 386/5/1 387/6/1 388/3/1
f 389/1/1 390/2/1 391/3/1 392/4/1
f 393/2/1 394/5/1 395/6/1 396/3/1
f 397/1/1 398/2/1 399/3/1 400/4/1
f 401/2/1 402/5/1 403/6/1 404/3/1
f 405/7/1 406/8/1 407/9/1 408/10/1
f 409/8/1 410/11/1 411/12/1 412/9/1
f 413/11/1 414/13/1 415/14/1 416/12/1
f 417/13/1 418/15/1 419/16/1 420/14/1
f 421/17/1 422/18/1 423/2/1 424/1/1
f 425/18/1 426/19/1 427/5/1 428/2/1
f 429/17/1 430/18/1 431/2/1 432/1/1
f 433/18/1 434/19/1 435/5/1 436/2/1
f 437/17/1 438/18/1 439/2/1 440/1/1
f 441/18/1 442/19/1 443/5/1 444/2/1
f 445/20/1 446/21/1 447/8/1 448/7/1
f 449/21/1 450/22/1 451/11/1 452/8/1
f 453/22/1 454/23/1 455/13/1 456/11/1
f 457/23/1 458/24/1 459/15/1 460/13/1
f 461/7/1 462/8/1 463/9/1 464/10/1
f 465/8/1 466/11/1 467/12/1 468/9/1
f 469/11/1 470/13/1 471/14/1 472/12/1
f 473/13/1 474/15/1 475/16/1 476/14/1
f 477/7/1 478/8/1 479/9/1 480/10/1
f 481/8/1 482/11/1 483/12/1 484/9/1
f 485/11/1 486/13/1 487/14/1 488/12/1
f 489/13/1 490/15/1 491/16/1 492/14/1
f 493/7/1 494/8/1 495/9/1 496/10/1
f 497/8/1 498/11/1 499/12/1 500/9/1
f 501/11/1 502/13/1 503/14/1 504/12/1
f 505/13/1 506/15/1 507/16/1 508/14/1
f 509/7/1 510/8/1 511/9/1 512/10/1
f 513/8/1 514/11/1 515/12/1 516/9/1
f 517/11/1 518/13/1 519/14/1 520/12/1
f 521/13/1 522/15/1 523/16/1 524/14/1
f 525/25/1 526/26/1 527/21/1 528/20/1
f 529/26/1 530/27/1 531/22/1 532/21/1
f 533/27/1 534/28/1 535/23/1 536/22/1
f 537/28/1 538/29/1 539/24/1 540/23/1
f 541/20/1 542/21/1 543/8/1 544/7/1
f 545/21/1 546/22/1 547/11/1 548/8/1
f 549/22/1 550/23/1 551/13/1 552/11/1
f 553/23/1 554/24/1 555/15/1 556/13/1
f 557/20/1 558/21/1 559/8/1 560/7/1
f 561/21/1 562/22/1 563/11/1 564/8/1
f 565/22/1 566/23/1 567/13/1 568/11/1
f 569/23/1 570/24/1 571/15/1 572/13/1
f 573/20/1 574/21/1 575/8/1 576/7/1
f 577/21/1 578/22/1 579/11/1 580/8/1
f 581/22/1 582/23/1 583/13/1 584/11/1
f 585/23/1 586/24/1 587/15/1 588/13/1
f 589/20/1 590/21/1 591/8/1 592/7/1
f 593/21/1 594/22/1 595/11/1 596/8/1
f 597/22/1 598/23/1 599/13/1 600/11/1
f 601/23/1 602/24/1 603/15/1 604/13/1
f 605/25/1 606/26/1 607/21/1 608/20/1
f 609/26/1 610/27/1 611/22/1 612/21/1
f 613/27/1 614/28/1 615/23/1 616/22/1
f 617/28/1 618/29/1 619/24/1 620/23/1
f 621/25/1 622/26/1 623/21/1 624/20/1
f 625/26/1 626/27/1 627/22/1 628/21/1
f 629/27/1 630/28/1 631/23/1 632/22/1
f 633/28/1 634/29/1 635/24/1 636/23/1
f 637/25/1 638/26/1 639/21/1 640/20/1
f 641/26/1 642/27/1 643/22/1 644/21/1
f 645/27/1 646/28/1 647/23/1 648/22/1
f 649/28/1 650/29/1 651/24/1 652/23/1
f 653/25/1 654/26/1 655/21/1 656/20/1
f 657/26/1 658/27/1 659/22/1 660/21/1
f 661/27/1 662/28/1 663/23/1 664/22/1
f 665/28/1 666/29/1 667/24/1 668/23/1

