# Tiled2Unity generated file. Do not modify by hand.
# Wavefront file for 'BarEXT1.1_mesh_0011.obj'

# Vertices (Count = 240)
v -70 -1 0
v -71 -1 0
v -71 0 0
v -70 0 0
v -71 -1 0
v -72 -1 0
v -72 0 0
v -71 0 0
v -39 -3 0
v -40 -3 0
v -40 -2 0
v -39 -2 0
v -40 -3 0
v -41 -3 0
v -41 -2 0
v -40 -2 0
v -39 -4 0
v -40 -4 0
v -40 -3 0
v -39 -3 0
v -40 -4 0
v -41 -4 0
v -41 -3 0
v -40 -3 0
v -118 -4 0
v -119 -4 0
v -119 -3 0
v -118 -3 0
v -119 -4 0
v -120 -4 0
v -120 -3 0
v -119 -3 0
v -79 -6 0
v -80 -6 0
v -80 -5 0
v -79 -5 0
v -61 -10 0
v -62 -10 0
v -62 -9 0
v -61 -9 0
v -62 -10 0
v -63 -10 0
v -63 -9 0
v -62 -9 0
v -63 -10 0
v -64 -10 0
v -64 -9 0
v -63 -9 0
v -64 -10 0
v -65 -10 0
v -65 -9 0
v -64 -9 0
v -65 -10 0
v -66 -10 0
v -66 -9 0
v -65 -9 0
v -66 -10 0
v -67 -10 0
v -67 -9 0
v -66 -9 0
v -67 -10 0
v -68 -10 0
v -68 -9 0
v -67 -9 0
v -68 -10 0
v -69 -10 0
v -69 -9 0
v -68 -9 0
v -69 -10 0
v -70 -10 0
v -70 -9 0
v -69 -9 0
v -70 -10 0
v -71 -10 0
v -71 -9 0
v -70 -9 0
v -71 -10 0
v -72 -10 0
v -72 -9 0
v -71 -9 0
v -72 -10 0
v -73 -10 0
v -73 -9 0
v -72 -9 0
v -73 -10 0
v -74 -10 0
v -74 -9 0
v -73 -9 0
v -74 -10 0
v -75 -10 0
v -75 -9 0
v -74 -9 0
v -75 -10 0
v -76 -10 0
v -76 -9 0
v -75 -9 0
v -75 -11 0
v -76 -11 0
v -76 -10 0
v -75 -10 0
v -76 -11 0
v -77 -11 0
v -77 -10 0
v -76 -10 0
v -77 -11 0
v -78 -11 0
v -78 -10 0
v -77 -10 0
v -78 -11 0
v -79 -11 0
v -79 -10 0
v -78 -10 0
v -79 -11 0
v -80 -11 0
v -80 -10 0
v -79 -10 0
v -80 -11 0
v -81 -11 0
v -81 -10 0
v -80 -10 0
v -81 -11 0
v -82 -11 0
v -82 -10 0
v -81 -10 0
v -82 -11 0
v -83 -11 0
v -83 -10 0
v -82 -10 0
v -65 -13 0
v -66 -13 0
v -66 -12 0
v -65 -12 0
v -55 -14 0
v -56 -14 0
v -56 -13 0
v -55 -13 0
v -56 -14 0
v -57 -14 0
v -57 -13 0
v -56 -13 0
v -65 -14 0
v -66 -14 0
v -66 -13 0
v -65 -13 0
v -70 -14 0
v -71 -14 0
v -71 -13 0
v -70 -13 0
v -71 -14 0
v -72 -14 0
v -72 -13 0
v -71 -13 0
v -80 -14 0
v -81 -14 0
v -81 -13 0
v -80 -13 0
v -81 -14 0
v -82 -14 0
v -82 -13 0
v -81 -13 0
v -109 -14 0
v -110 -14 0
v -110 -13 0
v -109 -13 0
v -110 -14 0
v -111 -14 0
v -111 -13 0
v -110 -13 0
v -65 -15 0
v -66 -15 0
v -66 -14 0
v -65 -14 0
v -91 -15 0
v -92 -15 0
v -92 -14 0
v -91 -14 0
v -92 -15 0
v -93 -15 0
v -93 -14 0
v -92 -14 0
v -117 -15 0
v -118 -15 0
v -118 -14 0
v -117 -14 0
v -118 -15 0
v -119 -15 0
v -119 -14 0
v -118 -14 0
v -35 -16 0
v -36 -16 0
v -36 -15 0
v -35 -15 0
v -36 -16 0
v -37 -16 0
v -37 -15 0
v -36 -15 0
v -39 -18 0
v -40 -18 0
v -40 -17 0
v -39 -17 0
v -40 -18 0
v -41 -18 0
v -41 -17 0
v -40 -17 0
v -41 -18 0
v -42 -18 0
v -42 -17 0
v -41 -17 0
v -90 -19 0
v -91 -19 0
v -91 -18 0
v -90 -18 0
v -91 -19 0
v -92 -19 0
v -92 -18 0
v -91 -18 0
v -110 -19 0
v -111 -19 0
v -111 -18 0
v -110 -18 0
v -111 -19 0
v -112 -19 0
v -112 -18 0
v -111 -18 0
v -41 -20 0
v -42 -20 0
v -42 -19 0
v -41 -19 0
v -42 -20 0
v -43 -20 0
v -43 -19 0
v -42 -19 0
v -65 -20 0
v -66 -20 0
v -66 -19 0
v -65 -19 0
v -66 -20 0
v -67 -20 0
v -67 -19 0
v -66 -19 0

# Texture cooridinates (Count = 23)
vt 0 0.5909091
vt 0.08333334 0.5909091
vt 0.08333334 0.6136364
vt 0 0.6136364
vt 0.1666667 0.5909091
vt 0.1666667 0.6136364
vt 0.08333334 0.8181818
vt 0.1666667 0.8181818
vt 0.1666667 0.8409091
vt 0.08333334 0.8409091
vt 0.25 0.8181818
vt 0.3333333 0.8181818
vt 0.3333333 0.8409091
vt 0.25 0.8409091
vt 0.08333334 0.6363636
vt 0.1666667 0.6363636
vt 0.1666667 0.6590909
vt 0.08333334 0.6590909
vt 0.25 0.6363636
vt 0.25 0.6590909
vt 0 0.6363636
vt 0 0.6590909
vt 0.25 0.6136364

# Normal
vn 0 0 -1

# Mesh description
g BarEXT1.1_mesh_0011

# Faces
f 1/1/1 2/2/1 3/3/1 4/4/1
f 5/2/1 6/5/1 7/6/1 8/3/1
f 9/1/1 10/2/1 11/3/1 12/4/1
f 13/2/1 14/5/1 15/6/1 16/3/1
f 17/7/1 18/8/1 19/9/1 20/10/1
f 21/11/1 22/12/1 23/13/1 24/14/1
f 25/1/1 26/2/1 27/3/1 28/4/1
f 29/2/1 30/5/1 31/6/1 32/3/1
f 33/1/1 34/2/1 35/3/1 36/4/1
f 37/15/1 38/16/1 39/17/1 40/18/1
f 41/16/1 42/19/1 43/20/1 44/17/1
f 45/4/1 46/3/1 47/15/1 48/21/1
f 49/15/1 50/16/1 51/17/1 52/18/1
f 53/4/1 54/3/1 55/15/1 56/21/1
f 57/16/1 58/19/1 59/20/1 60/17/1
f 61/4/1 62/3/1 63/15/1 64/21/1
f 65/3/1 66/6/1 67/16/1 68/15/1
f 69/21/1 70/15/1 71/18/1 72/22/1
f 73/16/1 74/19/1 75/20/1 76/17/1
f 77/6/1 78/23/1 79/19/1 80/16/1
f 81/3/1 82/6/1 83/16/1 84/15/1
f 85/3/1 86/6/1 87/16/1 88/15/1
f 89/15/1 90/16/1 91/17/1 92/18/1
f 93/4/1 94/3/1 95/15/1 96/21/1
f 97/4/1 98/3/1 99/15/1 100/21/1
f 101/6/1 102/23/1 103/19/1 104/16/1
f 105/15/1 106/16/1 107/17/1 108/18/1
f 109/4/1 110/3/1 111/15/1 112/21/1
f 113/3/1 114/6/1 115/16/1 116/15/1
f 117/16/1 118/19/1 119/20/1 120/17/1
f 121/6/1 122/23/1 123/19/1 124/16/1
f 125/21/1 126/15/1 127/18/1 128/22/1
f 129/16/1 130/19/1 131/20/1 132/17/1
f 133/1/1 134/2/1 135/3/1 136/4/1
f 137/2/1 138/5/1 139/6/1 140/3/1
f 141/4/1 142/3/1 143/15/1 144/21/1
f 145/1/1 146/2/1 147/3/1 148/4/1
f 149/2/1 150/5/1 151/6/1 152/3/1
f 153/1/1 154/2/1 155/3/1 156/4/1
f 157/2/1 158/5/1 159/6/1 160/3/1
f 161/1/1 162/2/1 163/3/1 164/4/1
f 165/2/1 166/5/1 167/6/1 168/3/1
f 169/4/1 170/3/1 171/15/1 172/21/1
f 173/1/1 174/2/1 175/3/1 176/4/1
f 177/2/1 178/5/1 179/6/1 180/3/1
f 181/1/1 182/2/1 183/3/1 184/4/1
f 185/2/1 186/5/1 187/6/1 188/3/1
f 189/1/1 190/2/1 191/3/1 192/4/1
f 193/2/1 194/5/1 195/6/1 196/3/1
f 197/1/1 198/2/1 199/3/1 200/4/1
f 201/1/1 202/2/1 203/3/1 204/4/1
f 205/2/1 206/5/1 207/6/1 208/3/1
f 209/1/1 210/2/1 211/3/1 212/4/1
f 213/2/1 214/5/1 215/6/1 216/3/1
f 217/1/1 218/2/1 219/3/1 220/4/1
f 221/2/1 222/5/1 223/6/1 224/3/1
f 225/1/1 226/2/1 227/3/1 228/4/1
f 229/2/1 230/5/1 231/6/1 232/3/1
f 233/1/1 234/2/1 235/3/1 236/4/1
f 237/2/1 238/5/1 239/6/1 240/3/1

