# Tiled2Unity generated file. Do not modify by hand.
# Wavefront file for 'BarEXT1.1_mesh_0014.obj'

# Vertices (Count = 96)
v -83 -5 0
v -84 -5 0
v -84 -4 0
v -83 -4 0
v -83 -6 0
v -84 -6 0
v -84 -5 0
v -83 -5 0
v -83 -7 0
v -84 -7 0
v -84 -6 0
v -83 -6 0
v -120 -7 0
v -121 -7 0
v -121 -6 0
v -120 -6 0
v -120 -8 0
v -121 -8 0
v -121 -7 0
v -120 -7 0
v -120 -9 0
v -121 -9 0
v -121 -8 0
v -120 -8 0
v -120 -10 0
v -121 -10 0
v -121 -9 0
v -120 -9 0
v -119 -11 0
v -120 -11 0
v -120 -10 0
v -119 -10 0
v -120 -11 0
v -121 -11 0
v -121 -10 0
v -120 -10 0
v -100 -12 0
v -101 -12 0
v -101 -11 0
v -100 -11 0
v -119 -12 0
v -120 -12 0
v -120 -11 0
v -119 -11 0
v -120 -12 0
v -121 -12 0
v -121 -11 0
v -120 -11 0
v -46 -13 0
v -47 -13 0
v -47 -12 0
v -46 -12 0
v -100 -13 0
v -101 -13 0
v -101 -12 0
v -100 -12 0
v -119 -13 0
v -120 -13 0
v -120 -12 0
v -119 -12 0
v -120 -13 0
v -121 -13 0
v -121 -12 0
v -120 -12 0
v -46 -14 0
v -47 -14 0
v -47 -13 0
v -46 -13 0
v -120 -14 0
v -121 -14 0
v -121 -13 0
v -120 -13 0
v -46 -15 0
v -47 -15 0
v -47 -14 0
v -46 -14 0
v -120 -15 0
v -121 -15 0
v -121 -14 0
v -120 -14 0
v -46 -16 0
v -47 -16 0
v -47 -15 0
v -46 -15 0
v -47 -16 0
v -48 -16 0
v -48 -15 0
v -47 -15 0
v -48 -16 0
v -49 -16 0
v -49 -15 0
v -48 -15 0
v -120 -16 0
v -121 -16 0
v -121 -15 0
v -120 -15 0

# Texture cooridinates (Count = 28)
vt 0.08333334 0.6136364
vt 0.1666667 0.6136364
vt 0.1666667 0.6363636
vt 0.08333334 0.6363636
vt 0 0.6136364
vt 0 0.6363636
vt 0.1666667 0.7045455
vt 0.25 0.7045455
vt 0.25 0.7272727
vt 0.1666667 0.7272727
vt 0.1666667 0.6818182
vt 0.25 0.6818182
vt 0.25 0.6136364
vt 0.25 0.6363636
vt 0.08333334 0.6590909
vt 0 0.6590909
vt 0.1666667 0.8181818
vt 0.1666667 0.8409091
vt 0.08333334 0.8409091
vt 0.08333334 0.8181818
vt 0.1666667 0.8636364
vt 0.08333334 0.8636364
vt 0 0.8636364
vt 0 0.8409091
vt 0.3333333 0.8409091
vt 0.3333333 0.8636364
vt 0.25 0.8636364
vt 0.25 0.8409091

# Normal
vn 0 0 -1

# Mesh description
g BarEXT1.1_mesh_0014

# Faces
f 1/1/1 2/2/1 3/3/1 4/4/1
f 5/5/1 6/1/1 7/4/1 8/6/1
f 9/5/1 10/1/1 11/4/1 12/6/1
f 13/7/1 14/8/1 15/9/1 16/10/1
f 17/11/1 18/12/1 19/8/1 20/7/1
f 21/11/1 22/12/1 23/8/1 24/7/1
f 25/11/1 26/12/1 27/8/1 28/7/1
f 29/5/1 30/1/1 31/4/1 32/6/1
f 33/11/1 34/12/1 35/8/1 36/7/1
f 37/2/1 38/13/1 39/14/1 40/3/1
f 41/6/1 42/4/1 43/15/1 44/16/1
f 45/11/1 46/12/1 47/8/1 48/7/1
f 49/17/1 50/18/1 51/19/1 52/20/1
f 53/2/1 54/13/1 55/14/1 56/3/1
f 57/1/1 58/2/1 59/3/1 60/4/1
f 61/11/1 62/12/1 63/8/1 64/7/1
f 65/18/1 66/21/1 67/22/1 68/19/1
f 69/11/1 70/12/1 71/8/1 72/7/1
f 73/19/1 74/22/1 75/23/1 76/24/1
f 77/11/1 78/12/1 79/8/1 80/7/1
f 81/17/1 82/18/1 83/19/1 84/20/1
f 85/17/1 86/18/1 87/19/1 88/20/1
f 89/25/1 90/26/1 91/27/1 92/28/1
f 93/11/1 94/12/1 95/8/1 96/7/1

