# Tiled2Unity generated file. Do not modify by hand.
# Wavefront file for 'BarEXT1.1_mesh_0008.obj'

# Vertices (Count = 168)
v -70 -1 0
v -71 -1 0
v -71 0 0
v -70 0 0
v -71 -1 0
v -72 -1 0
v -72 0 0
v -71 0 0
v -39 -3 0
v -40 -3 0
v -40 -2 0
v -39 -2 0
v -40 -3 0
v -41 -3 0
v -41 -2 0
v -40 -2 0
v -118 -4 0
v -119 -4 0
v -119 -3 0
v -118 -3 0
v -119 -4 0
v -120 -4 0
v -120 -3 0
v -119 -3 0
v -79 -6 0
v -80 -6 0
v -80 -5 0
v -79 -5 0
v -80 -6 0
v -81 -6 0
v -81 -5 0
v -80 -5 0
v -65 -13 0
v -66 -13 0
v -66 -12 0
v -65 -12 0
v -55 -14 0
v -56 -14 0
v -56 -13 0
v -55 -13 0
v -56 -14 0
v -57 -14 0
v -57 -13 0
v -56 -13 0
v -65 -14 0
v -66 -14 0
v -66 -13 0
v -65 -13 0
v -70 -14 0
v -71 -14 0
v -71 -13 0
v -70 -13 0
v -71 -14 0
v -72 -14 0
v -72 -13 0
v -71 -13 0
v -80 -14 0
v -81 -14 0
v -81 -13 0
v -80 -13 0
v -81 -14 0
v -82 -14 0
v -82 -13 0
v -81 -13 0
v -109 -14 0
v -110 -14 0
v -110 -13 0
v -109 -13 0
v -110 -14 0
v -111 -14 0
v -111 -13 0
v -110 -13 0
v -65 -15 0
v -66 -15 0
v -66 -14 0
v -65 -14 0
v -86 -15 0
v -87 -15 0
v -87 -14 0
v -86 -14 0
v -87 -15 0
v -88 -15 0
v -88 -14 0
v -87 -14 0
v -91 -15 0
v -92 -15 0
v -92 -14 0
v -91 -14 0
v -92 -15 0
v -93 -15 0
v -93 -14 0
v -92 -14 0
v -102 -15 0
v -103 -15 0
v -103 -14 0
v -102 -14 0
v -103 -15 0
v -104 -15 0
v -104 -14 0
v -103 -14 0
v -117 -15 0
v -118 -15 0
v -118 -14 0
v -117 -14 0
v -118 -15 0
v -119 -15 0
v -119 -14 0
v -118 -14 0
v -35 -16 0
v -36 -16 0
v -36 -15 0
v -35 -15 0
v -36 -16 0
v -37 -16 0
v -37 -15 0
v -36 -15 0
v -71 -16 0
v -72 -16 0
v -72 -15 0
v -71 -15 0
v -72 -16 0
v -73 -16 0
v -73 -15 0
v -72 -15 0
v -39 -18 0
v -40 -18 0
v -40 -17 0
v -39 -17 0
v -40 -18 0
v -41 -18 0
v -41 -17 0
v -40 -17 0
v -41 -18 0
v -42 -18 0
v -42 -17 0
v -41 -17 0
v -90 -19 0
v -91 -19 0
v -91 -18 0
v -90 -18 0
v -91 -19 0
v -92 -19 0
v -92 -18 0
v -91 -18 0
v -110 -19 0
v -111 -19 0
v -111 -18 0
v -110 -18 0
v -111 -19 0
v -112 -19 0
v -112 -18 0
v -111 -18 0
v -41 -20 0
v -42 -20 0
v -42 -19 0
v -41 -19 0
v -42 -20 0
v -43 -20 0
v -43 -19 0
v -42 -19 0
v -65 -20 0
v -66 -20 0
v -66 -19 0
v -65 -19 0
v -66 -20 0
v -67 -20 0
v -67 -19 0
v -66 -19 0

# Texture cooridinates (Count = 12)
vt 0 0.5909091
vt 0.08333334 0.5909091
vt 0.08333334 0.6136364
vt 0 0.6136364
vt 0.1666667 0.5909091
vt 0.1666667 0.6136364
vt 0.1666667 0.6363636
vt 0.25 0.6363636
vt 0.25 0.6590909
vt 0.1666667 0.6590909
vt 0.08333334 0.6363636
vt 0 0.6363636

# Normal
vn 0 0 -1

# Mesh description
g BarEXT1.1_mesh_0008

# Faces
f 1/1/1 2/2/1 3/3/1 4/4/1
f 5/2/1 6/5/1 7/6/1 8/3/1
f 9/1/1 10/2/1 11/3/1 12/4/1
f 13/2/1 14/5/1 15/6/1 16/3/1
f 17/1/1 18/2/1 19/3/1 20/4/1
f 21/2/1 22/5/1 23/6/1 24/3/1
f 25/1/1 26/2/1 27/3/1 28/4/1
f 29/2/1 30/5/1 31/6/1 32/3/1
f 33/7/1 34/8/1 35/9/1 36/10/1
f 37/1/1 38/2/1 39/3/1 40/4/1
f 41/2/1 42/5/1 43/6/1 44/3/1
f 45/4/1 46/3/1 47/11/1 48/12/1
f 49/1/1 50/2/1 51/3/1 52/4/1
f 53/2/1 54/5/1 55/6/1 56/3/1
f 57/1/1 58/2/1 59/3/1 60/4/1
f 61/2/1 62/5/1 63/6/1 64/3/1
f 65/1/1 66/2/1 67/3/1 68/4/1
f 69/2/1 70/5/1 71/6/1 72/3/1
f 73/4/1 74/3/1 75/11/1 76/12/1
f 77/1/1 78/2/1 79/3/1 80/4/1
f 81/2/1 82/5/1 83/6/1 84/3/1
f 85/1/1 86/2/1 87/3/1 88/4/1
f 89/2/1 90/5/1 91/6/1 92/3/1
f 93/1/1 94/2/1 95/3/1 96/4/1
f 97/2/1 98/5/1 99/6/1 100/3/1
f 101/1/1 102/2/1 103/3/1 104/4/1
f 105/2/1 106/5/1 107/6/1 108/3/1
f 109/1/1 110/2/1 111/3/1 112/4/1
f 113/2/1 114/5/1 115/6/1 116/3/1
f 117/1/1 118/2/1 119/3/1 120/4/1
f 121/2/1 122/5/1 123/6/1 124/3/1
f 125/1/1 126/2/1 127/3/1 128/4/1
f 129/1/1 130/2/1 131/3/1 132/4/1
f 133/2/1 134/5/1 135/6/1 136/3/1
f 137/1/1 138/2/1 139/3/1 140/4/1
f 141/2/1 142/5/1 143/6/1 144/3/1
f 145/1/1 146/2/1 147/3/1 148/4/1
f 149/2/1 150/5/1 151/6/1 152/3/1
f 153/1/1 154/2/1 155/3/1 156/4/1
f 157/2/1 158/5/1 159/6/1 160/3/1
f 161/1/1 162/2/1 163/3/1 164/4/1
f 165/2/1 166/5/1 167/6/1 168/3/1

