# Tiled2Unity generated file. Do not modify by hand.
# Wavefront file for 'BarEXT1.1_mesh_0013.obj'

# Vertices (Count = 56)
v -83 -5 0
v -84 -5 0
v -84 -4 0
v -83 -4 0
v -83 -6 0
v -84 -6 0
v -84 -5 0
v -83 -5 0
v -83 -7 0
v -84 -7 0
v -84 -6 0
v -83 -6 0
v -119 -11 0
v -120 -11 0
v -120 -10 0
v -119 -10 0
v -100 -12 0
v -101 -12 0
v -101 -11 0
v -100 -11 0
v -119 -12 0
v -120 -12 0
v -120 -11 0
v -119 -11 0
v -46 -13 0
v -47 -13 0
v -47 -12 0
v -46 -12 0
v -100 -13 0
v -101 -13 0
v -101 -12 0
v -100 -12 0
v -119 -13 0
v -120 -13 0
v -120 -12 0
v -119 -12 0
v -46 -14 0
v -47 -14 0
v -47 -13 0
v -46 -13 0
v -46 -15 0
v -47 -15 0
v -47 -14 0
v -46 -14 0
v -46 -16 0
v -47 -16 0
v -47 -15 0
v -46 -15 0
v -47 -16 0
v -48 -16 0
v -48 -15 0
v -47 -15 0
v -48 -16 0
v -49 -16 0
v -49 -15 0
v -48 -15 0

# Texture cooridinates (Count = 22)
vt 0.08333334 0.6136364
vt 0.1666667 0.6136364
vt 0.1666667 0.6363636
vt 0.08333334 0.6363636
vt 0 0.6136364
vt 0 0.6363636
vt 0.25 0.6136364
vt 0.25 0.6363636
vt 0.08333334 0.6590909
vt 0 0.6590909
vt 0.1666667 0.8181818
vt 0.1666667 0.8409091
vt 0.08333334 0.8409091
vt 0.08333334 0.8181818
vt 0.1666667 0.8636364
vt 0.08333334 0.8636364
vt 0 0.8636364
vt 0 0.8409091
vt 0.3333333 0.8409091
vt 0.3333333 0.8636364
vt 0.25 0.8636364
vt 0.25 0.8409091

# Normal
vn 0 0 -1

# Mesh description
g BarEXT1.1_mesh_0013

# Faces
f 1/1/1 2/2/1 3/3/1 4/4/1
f 5/5/1 6/1/1 7/4/1 8/6/1
f 9/5/1 10/1/1 11/4/1 12/6/1
f 13/5/1 14/1/1 15/4/1 16/6/1
f 17/2/1 18/7/1 19/8/1 20/3/1
f 21/6/1 22/4/1 23/9/1 24/10/1
f 25/11/1 26/12/1 27/13/1 28/14/1
f 29/2/1 30/7/1 31/8/1 32/3/1
f 33/1/1 34/2/1 35/3/1 36/4/1
f 37/12/1 38/15/1 39/16/1 40/13/1
f 41/13/1 42/16/1 43/17/1 44/18/1
f 45/11/1 46/12/1 47/13/1 48/14/1
f 49/11/1 50/12/1 51/13/1 52/14/1
f 53/19/1 54/20/1 55/21/1 56/22/1

