# Tiled2Unity generated file. Do not modify by hand.
# Wavefront file for 'BarEXT1.1_mesh_0008.obj'

# Vertices (Count = 12)
v -122 -1 0
v -123 -1 0
v -123 0 0
v -122 0 0
v -123 -1 0
v -124 -1 0
v -124 0 0
v -123 0 0
v -124 -1 0
v -125 -1 0
v -125 0 0
v -124 0 0

# Texture cooridinates (Count = 4)
vt 0.8333333 0.75
vt 0.9166667 0.75
vt 0.9166667 0.7727273
vt 0.8333333 0.7727273

# Normal
vn 0 0 -1

# Mesh description
g BarEXT1.1_mesh_0008

# Faces
f 1/1/1 2/2/1 3/3/1 4/4/1
f 5/1/1 6/2/1 7/3/1 8/4/1
f 9/1/1 10/2/1 11/3/1 12/4/1

