# Tiled2Unity generated file. Do not modify by hand.
# Wavefront file for 'BarEXT1.1_mesh_0012.obj'

# Vertices (Count = 1032)
v -118 -1 0
v -119 -1 0
v -119 0 0
v -118 0 0
v -119 -1 0
v -120 -1 0
v -120 0 0
v -119 0 0
v -38 -2 0
v -39 -2 0
v -39 -1 0
v -38 -1 0
v -39 -2 0
v -40 -2 0
v -40 -1 0
v -39 -1 0
v -40 -2 0
v -41 -2 0
v -41 -1 0
v -40 -1 0
v -41 -2 0
v -42 -2 0
v -42 -1 0
v -41 -1 0
v -118 -2 0
v -119 -2 0
v -119 -1 0
v -118 -1 0
v -38 -3 0
v -39 -3 0
v -39 -2 0
v -38 -2 0
v -39 -3 0
v -40 -3 0
v -40 -2 0
v -39 -2 0
v -40 -3 0
v -41 -3 0
v -41 -2 0
v -40 -2 0
v -41 -3 0
v -42 -3 0
v -42 -2 0
v -41 -2 0
v -38 -4 0
v -39 -4 0
v -39 -3 0
v -38 -3 0
v -39 -4 0
v -40 -4 0
v -40 -3 0
v -39 -3 0
v -40 -4 0
v -41 -4 0
v -41 -3 0
v -40 -3 0
v -41 -4 0
v -42 -4 0
v -42 -3 0
v -41 -3 0
v -97 -4 0
v -98 -4 0
v -98 -3 0
v -97 -3 0
v -98 -4 0
v -99 -4 0
v -99 -3 0
v -98 -3 0
v -28 -5 0
v -29 -5 0
v -29 -4 0
v -28 -4 0
v -29 -5 0
v -30 -5 0
v -30 -4 0
v -29 -4 0
v -42 -5 0
v -43 -5 0
v -43 -4 0
v -42 -4 0
v -43 -5 0
v -44 -5 0
v -44 -4 0
v -43 -4 0
v -56 -5 0
v -57 -5 0
v -57 -4 0
v -56 -4 0
v -57 -5 0
v -58 -5 0
v -58 -4 0
v -57 -4 0
v -62 -5 0
v -63 -5 0
v -63 -4 0
v -62 -4 0
v -63 -5 0
v -64 -5 0
v -64 -4 0
v -63 -4 0
v -72 -5 0
v -73 -5 0
v -73 -4 0
v -72 -4 0
v -73 -5 0
v -74 -5 0
v -74 -4 0
v -73 -4 0
v -80 -5 0
v -81 -5 0
v -81 -4 0
v -80 -4 0
v -81 -5 0
v -82 -5 0
v -82 -4 0
v -81 -4 0
v -86 -5 0
v -87 -5 0
v -87 -4 0
v -86 -4 0
v -87 -5 0
v -88 -5 0
v -88 -4 0
v -87 -4 0
v -88 -5 0
v -89 -5 0
v -89 -4 0
v -88 -4 0
v -89 -5 0
v -90 -5 0
v -90 -4 0
v -89 -4 0
v -90 -5 0
v -91 -5 0
v -91 -4 0
v -90 -4 0
v -91 -5 0
v -92 -5 0
v -92 -4 0
v -91 -4 0
v -97 -5 0
v -98 -5 0
v -98 -4 0
v -97 -4 0
v -98 -5 0
v -99 -5 0
v -99 -4 0
v -98 -4 0
v -107 -5 0
v -108 -5 0
v -108 -4 0
v -107 -4 0
v -108 -5 0
v -109 -5 0
v -109 -4 0
v -108 -4 0
v -109 -5 0
v -110 -5 0
v -110 -4 0
v -109 -4 0
v -110 -5 0
v -111 -5 0
v -111 -4 0
v -110 -4 0
v -116 -5 0
v -117 -5 0
v -117 -4 0
v -116 -4 0
v -117 -5 0
v -118 -5 0
v -118 -4 0
v -117 -4 0
v -28 -6 0
v -29 -6 0
v -29 -5 0
v -28 -5 0
v -29 -6 0
v -30 -6 0
v -30 -5 0
v -29 -5 0
v -42 -6 0
v -43 -6 0
v -43 -5 0
v -42 -5 0
v -43 -6 0
v -44 -6 0
v -44 -5 0
v -43 -5 0
v -56 -6 0
v -57 -6 0
v -57 -5 0
v -56 -5 0
v -86 -6 0
v -87 -6 0
v -87 -5 0
v -86 -5 0
v -68 -14 0
v -69 -14 0
v -69 -13 0
v -68 -13 0
v -69 -14 0
v -70 -14 0
v -70 -13 0
v -69 -13 0
v -68 -15 0
v -69 -15 0
v -69 -14 0
v -68 -14 0
v -69 -15 0
v -70 -15 0
v -70 -14 0
v -69 -14 0
v -71 -15 0
v -72 -15 0
v -72 -14 0
v -71 -14 0
v -72 -15 0
v -73 -15 0
v -73 -14 0
v -72 -14 0
v -87 -15 0
v -88 -15 0
v -88 -14 0
v -87 -14 0
v -88 -15 0
v -89 -15 0
v -89 -14 0
v -88 -14 0
v -102 -15 0
v -103 -15 0
v -103 -14 0
v -102 -14 0
v -103 -15 0
v -104 -15 0
v -104 -14 0
v -103 -14 0
v -110 -15 0
v -111 -15 0
v -111 -14 0
v -110 -14 0
v -111 -15 0
v -112 -15 0
v -112 -14 0
v -111 -14 0
v -112 -15 0
v -113 -15 0
v -113 -14 0
v -112 -14 0
v -113 -15 0
v -114 -15 0
v -114 -14 0
v -113 -14 0
v -71 -16 0
v -72 -16 0
v -72 -15 0
v -71 -15 0
v -72 -16 0
v -73 -16 0
v -73 -15 0
v -72 -15 0
v -102 -16 0
v -103 -16 0
v -103 -15 0
v -102 -15 0
v -110 -16 0
v -111 -16 0
v -111 -15 0
v -110 -15 0
v -111 -16 0
v -112 -16 0
v -112 -15 0
v -111 -15 0
v -112 -16 0
v -113 -16 0
v -113 -15 0
v -112 -15 0
v -113 -16 0
v -114 -16 0
v -114 -15 0
v -113 -15 0
v -25 -17 0
v -26 -17 0
v -26 -16 0
v -25 -16 0
v -26 -17 0
v -27 -17 0
v -27 -16 0
v -26 -16 0
v -27 -17 0
v -28 -17 0
v -28 -16 0
v -27 -16 0
v -28 -17 0
v -29 -17 0
v -29 -16 0
v -28 -16 0
v -56 -17 0
v -57 -17 0
v -57 -16 0
v -56 -16 0
v -57 -17 0
v -58 -17 0
v -58 -16 0
v -57 -16 0
v -58 -17 0
v -59 -17 0
v -59 -16 0
v -58 -16 0
v -59 -17 0
v -60 -17 0
v -60 -16 0
v -59 -16 0
v -76 -17 0
v -77 -17 0
v -77 -16 0
v -76 -16 0
v -77 -17 0
v -78 -17 0
v -78 -16 0
v -77 -16 0
v -78 -17 0
v -79 -17 0
v -79 -16 0
v -78 -16 0
v -79 -17 0
v -80 -17 0
v -80 -16 0
v -79 -16 0
v -89 -17 0
v -90 -17 0
v -90 -16 0
v -89 -16 0
v -90 -17 0
v -91 -17 0
v -91 -16 0
v -90 -16 0
v -91 -17 0
v -92 -17 0
v -92 -16 0
v -91 -16 0
v -92 -17 0
v -93 -17 0
v -93 -16 0
v -92 -16 0
v -110 -17 0
v -111 -17 0
v -111 -16 0
v -110 -16 0
v -111 -17 0
v -112 -17 0
v -112 -16 0
v -111 -16 0
v -112 -17 0
v -113 -17 0
v -113 -16 0
v -112 -16 0
v -113 -17 0
v -114 -17 0
v -114 -16 0
v -113 -16 0
v -120 -17 0
v -121 -17 0
v -121 -16 0
v -120 -16 0
v -25 -18 0
v -26 -18 0
v -26 -17 0
v -25 -17 0
v -26 -18 0
v -27 -18 0
v -27 -17 0
v -26 -17 0
v -27 -18 0
v -28 -18 0
v -28 -17 0
v -27 -17 0
v -28 -18 0
v -29 -18 0
v -29 -17 0
v -28 -17 0
v -31 -18 0
v -32 -18 0
v -32 -17 0
v -31 -17 0
v -32 -18 0
v -33 -18 0
v -33 -17 0
v -32 -17 0
v -33 -18 0
v -34 -18 0
v -34 -17 0
v -33 -17 0
v -34 -18 0
v -35 -18 0
v -35 -17 0
v -34 -17 0
v -35 -18 0
v -36 -18 0
v -36 -17 0
v -35 -17 0
v -36 -18 0
v -37 -18 0
v -37 -17 0
v -36 -17 0
v -37 -18 0
v -38 -18 0
v -38 -17 0
v -37 -17 0
v -44 -18 0
v -45 -18 0
v -45 -17 0
v -44 -17 0
v -45 -18 0
v -46 -18 0
v -46 -17 0
v -45 -17 0
v -46 -18 0
v -47 -18 0
v -47 -17 0
v -46 -17 0
v -47 -18 0
v -48 -18 0
v -48 -17 0
v -47 -17 0
v -48 -18 0
v -49 -18 0
v -49 -17 0
v -48 -17 0
v -49 -18 0
v -50 -18 0
v -50 -17 0
v -49 -17 0
v -50 -18 0
v -51 -18 0
v -51 -17 0
v -50 -17 0
v -51 -18 0
v -52 -18 0
v -52 -17 0
v -51 -17 0
v -52 -18 0
v -53 -18 0
v -53 -17 0
v -52 -17 0
v -56 -18 0
v -57 -18 0
v -57 -17 0
v -56 -17 0
v -57 -18 0
v -58 -18 0
v -58 -17 0
v -57 -17 0
v -58 -18 0
v -59 -18 0
v -59 -17 0
v -58 -17 0
v -59 -18 0
v -60 -18 0
v -60 -17 0
v -59 -17 0
v -76 -18 0
v -77 -18 0
v -77 -17 0
v -76 -17 0
v -77 -18 0
v -78 -18 0
v -78 -17 0
v -77 -17 0
v -78 -18 0
v -79 -18 0
v -79 -17 0
v -78 -17 0
v -79 -18 0
v -80 -18 0
v -80 -17 0
v -79 -17 0
v -81 -18 0
v -82 -18 0
v -82 -17 0
v -81 -17 0
v -82 -18 0
v -83 -18 0
v -83 -17 0
v -82 -17 0
v -83 -18 0
v -84 -18 0
v -84 -17 0
v -83 -17 0
v -84 -18 0
v -85 -18 0
v -85 -17 0
v -84 -17 0
v -85 -18 0
v -86 -18 0
v -86 -17 0
v -85 -17 0
v -86 -18 0
v -87 -18 0
v -87 -17 0
v -86 -17 0
v -87 -18 0
v -88 -18 0
v -88 -17 0
v -87 -17 0
v -89 -18 0
v -90 -18 0
v -90 -17 0
v -89 -17 0
v -90 -18 0
v -91 -18 0
v -91 -17 0
v -90 -17 0
v -91 -18 0
v -92 -18 0
v -92 -17 0
v -91 -17 0
v -92 -18 0
v -93 -18 0
v -93 -17 0
v -92 -17 0
v -94 -18 0
v -95 -18 0
v -95 -17 0
v -94 -17 0
v -95 -18 0
v -96 -18 0
v -96 -17 0
v -95 -17 0
v -96 -18 0
v -97 -18 0
v -97 -17 0
v -96 -17 0
v -97 -18 0
v -98 -18 0
v -98 -17 0
v -97 -17 0
v -98 -18 0
v -99 -18 0
v -99 -17 0
v -98 -17 0
v -99 -18 0
v -100 -18 0
v -100 -17 0
v -99 -17 0
v -100 -18 0
v -101 -18 0
v -101 -17 0
v -100 -17 0
v -101 -18 0
v -102 -18 0
v -102 -17 0
v -101 -17 0
v -102 -18 0
v -103 -18 0
v -103 -17 0
v -102 -17 0
v -103 -18 0
v -104 -18 0
v -104 -17 0
v -103 -17 0
v -104 -18 0
v -105 -18 0
v -105 -17 0
v -104 -17 0
v -105 -18 0
v -106 -18 0
v -106 -17 0
v -105 -17 0
v -106 -18 0
v -107 -18 0
v -107 -17 0
v -106 -17 0
v -107 -18 0
v -108 -18 0
v -108 -17 0
v -107 -17 0
v -108 -18 0
v -109 -18 0
v -109 -17 0
v -108 -17 0
v -114 -18 0
v -115 -18 0
v -115 -17 0
v -114 -17 0
v -115 -18 0
v -116 -18 0
v -116 -17 0
v -115 -17 0
v -116 -18 0
v -117 -18 0
v -117 -17 0
v -116 -17 0
v -117 -18 0
v -118 -18 0
v -118 -17 0
v -117 -17 0
v -118 -18 0
v -119 -18 0
v -119 -17 0
v -118 -17 0
v -119 -18 0
v -120 -18 0
v -120 -17 0
v -119 -17 0
v -120 -18 0
v -121 -18 0
v -121 -17 0
v -120 -17 0
v -25 -19 0
v -26 -19 0
v -26 -18 0
v -25 -18 0
v -26 -19 0
v -27 -19 0
v -27 -18 0
v -26 -18 0
v -27 -19 0
v -28 -19 0
v -28 -18 0
v -27 -18 0
v -28 -19 0
v -29 -19 0
v -29 -18 0
v -28 -18 0
v -31 -19 0
v -32 -19 0
v -32 -18 0
v -31 -18 0
v -32 -19 0
v -33 -19 0
v -33 -18 0
v -32 -18 0
v -33 -19 0
v -34 -19 0
v -34 -18 0
v -33 -18 0
v -34 -19 0
v -35 -19 0
v -35 -18 0
v -34 -18 0
v -35 -19 0
v -36 -19 0
v -36 -18 0
v -35 -18 0
v -36 -19 0
v -37 -19 0
v -37 -18 0
v -36 -18 0
v -37 -19 0
v -38 -19 0
v -38 -18 0
v -37 -18 0
v -44 -19 0
v -45 -19 0
v -45 -18 0
v -44 -18 0
v -45 -19 0
v -46 -19 0
v -46 -18 0
v -45 -18 0
v -46 -19 0
v -47 -19 0
v -47 -18 0
v -46 -18 0
v -47 -19 0
v -48 -19 0
v -48 -18 0
v -47 -18 0
v -48 -19 0
v -49 -19 0
v -49 -18 0
v -48 -18 0
v -49 -19 0
v -50 -19 0
v -50 -18 0
v -49 -18 0
v -50 -19 0
v -51 -19 0
v -51 -18 0
v -50 -18 0
v -51 -19 0
v -52 -19 0
v -52 -18 0
v -51 -18 0
v -52 -19 0
v -53 -19 0
v -53 -18 0
v -52 -18 0
v -56 -19 0
v -57 -19 0
v -57 -18 0
v -56 -18 0
v -57 -19 0
v -58 -19 0
v -58 -18 0
v -57 -18 0
v -58 -19 0
v -59 -19 0
v -59 -18 0
v -58 -18 0
v -59 -19 0
v -60 -19 0
v -60 -18 0
v -59 -18 0
v -76 -19 0
v -77 -19 0
v -77 -18 0
v -76 -18 0
v -77 -19 0
v -78 -19 0
v -78 -18 0
v -77 -18 0
v -78 -19 0
v -79 -19 0
v -79 -18 0
v -78 -18 0
v -79 -19 0
v -80 -19 0
v -80 -18 0
v -79 -18 0
v -81 -19 0
v -82 -19 0
v -82 -18 0
v -81 -18 0
v -82 -19 0
v -83 -19 0
v -83 -18 0
v -82 -18 0
v -83 -19 0
v -84 -19 0
v -84 -18 0
v -83 -18 0
v -84 -19 0
v -85 -19 0
v -85 -18 0
v -84 -18 0
v -85 -19 0
v -86 -19 0
v -86 -18 0
v -85 -18 0
v -86 -19 0
v -87 -19 0
v -87 -18 0
v -86 -18 0
v -87 -19 0
v -88 -19 0
v -88 -18 0
v -87 -18 0
v -89 -19 0
v -90 -19 0
v -90 -18 0
v -89 -18 0
v -90 -19 0
v -91 -19 0
v -91 -18 0
v -90 -18 0
v -91 -19 0
v -92 -19 0
v -92 -18 0
v -91 -18 0
v -92 -19 0
v -93 -19 0
v -93 -18 0
v -92 -18 0
v -94 -19 0
v -95 -19 0
v -95 -18 0
v -94 -18 0
v -95 -19 0
v -96 -19 0
v -96 -18 0
v -95 -18 0
v -96 -19 0
v -97 -19 0
v -97 -18 0
v -96 -18 0
v -97 -19 0
v -98 -19 0
v -98 -18 0
v -97 -18 0
v -98 -19 0
v -99 -19 0
v -99 -18 0
v -98 -18 0
v -99 -19 0
v -100 -19 0
v -100 -18 0
v -99 -18 0
v -100 -19 0
v -101 -19 0
v -101 -18 0
v -100 -18 0
v -101 -19 0
v -102 -19 0
v -102 -18 0
v -101 -18 0
v -102 -19 0
v -103 -19 0
v -103 -18 0
v -102 -18 0
v -103 -19 0
v -104 -19 0
v -104 -18 0
v -103 -18 0
v -104 -19 0
v -105 -19 0
v -105 -18 0
v -104 -18 0
v -105 -19 0
v -106 -19 0
v -106 -18 0
v -105 -18 0
v -106 -19 0
v -107 -19 0
v -107 -18 0
v -106 -18 0
v -107 -19 0
v -108 -19 0
v -108 -18 0
v -107 -18 0
v -108 -19 0
v -109 -19 0
v -109 -18 0
v -108 -18 0
v -114 -19 0
v -115 -19 0
v -115 -18 0
v -114 -18 0
v -115 -19 0
v -116 -19 0
v -116 -18 0
v -115 -18 0
v -116 -19 0
v -117 -19 0
v -117 -18 0
v -116 -18 0
v -117 -19 0
v -118 -19 0
v -118 -18 0
v -117 -18 0
v -118 -19 0
v -119 -19 0
v -119 -18 0
v -118 -18 0
v -119 -19 0
v -120 -19 0
v -120 -18 0
v -119 -18 0
v -120 -19 0
v -121 -19 0
v -121 -18 0
v -120 -18 0
v -31 -20 0
v -32 -20 0
v -32 -19 0
v -31 -19 0
v -32 -20 0
v -33 -20 0
v -33 -19 0
v -32 -19 0
v -33 -20 0
v -34 -20 0
v -34 -19 0
v -33 -19 0
v -34 -20 0
v -35 -20 0
v -35 -19 0
v -34 -19 0
v -35 -20 0
v -36 -20 0
v -36 -19 0
v -35 -19 0
v -36 -20 0
v -37 -20 0
v -37 -19 0
v -36 -19 0
v -37 -20 0
v -38 -20 0
v -38 -19 0
v -37 -19 0
v -44 -20 0
v -45 -20 0
v -45 -19 0
v -44 -19 0
v -45 -20 0
v -46 -20 0
v -46 -19 0
v -45 -19 0
v -46 -20 0
v -47 -20 0
v -47 -19 0
v -46 -19 0
v -47 -20 0
v -48 -20 0
v -48 -19 0
v -47 -19 0
v -48 -20 0
v -49 -20 0
v -49 -19 0
v -48 -19 0
v -49 -20 0
v -50 -20 0
v -50 -19 0
v -49 -19 0
v -50 -20 0
v -51 -20 0
v -51 -19 0
v -50 -19 0
v -51 -20 0
v -52 -20 0
v -52 -19 0
v -51 -19 0
v -52 -20 0
v -53 -20 0
v -53 -19 0
v -52 -19 0
v -81 -20 0
v -82 -20 0
v -82 -19 0
v -81 -19 0
v -82 -20 0
v -83 -20 0
v -83 -19 0
v -82 -19 0
v -83 -20 0
v -84 -20 0
v -84 -19 0
v -83 -19 0
v -84 -20 0
v -85 -20 0
v -85 -19 0
v -84 -19 0
v -85 -20 0
v -86 -20 0
v -86 -19 0
v -85 -19 0
v -86 -20 0
v -87 -20 0
v -87 -19 0
v -86 -19 0
v -87 -20 0
v -88 -20 0
v -88 -19 0
v -87 -19 0
v -94 -20 0
v -95 -20 0
v -95 -19 0
v -94 -19 0
v -95 -20 0
v -96 -20 0
v -96 -19 0
v -95 -19 0
v -96 -20 0
v -97 -20 0
v -97 -19 0
v -96 -19 0
v -97 -20 0
v -98 -20 0
v -98 -19 0
v -97 -19 0
v -98 -20 0
v -99 -20 0
v -99 -19 0
v -98 -19 0
v -99 -20 0
v -100 -20 0
v -100 -19 0
v -99 -19 0
v -100 -20 0
v -101 -20 0
v -101 -19 0
v -100 -19 0
v -101 -20 0
v -102 -20 0
v -102 -19 0
v -101 -19 0
v -102 -20 0
v -103 -20 0
v -103 -19 0
v -102 -19 0
v -103 -20 0
v -104 -20 0
v -104 -19 0
v -103 -19 0
v -104 -20 0
v -105 -20 0
v -105 -19 0
v -104 -19 0
v -105 -20 0
v -106 -20 0
v -106 -19 0
v -105 -19 0
v -106 -20 0
v -107 -20 0
v -107 -19 0
v -106 -19 0
v -107 -20 0
v -108 -20 0
v -108 -19 0
v -107 -19 0
v -108 -20 0
v -109 -20 0
v -109 -19 0
v -108 -19 0
v -114 -20 0
v -115 -20 0
v -115 -19 0
v -114 -19 0
v -115 -20 0
v -116 -20 0
v -116 -19 0
v -115 -19 0
v -116 -20 0
v -117 -20 0
v -117 -19 0
v -116 -19 0
v -117 -20 0
v -118 -20 0
v -118 -19 0
v -117 -19 0
v -118 -20 0
v -119 -20 0
v -119 -19 0
v -118 -19 0
v -119 -20 0
v -120 -20 0
v -120 -19 0
v -119 -19 0
v -120 -20 0
v -121 -20 0
v -121 -19 0
v -120 -19 0

# Texture cooridinates (Count = 65)
vt 0.8 0.8636364
vt 0.85 0.8636364
vt 0.85 0.9090909
vt 0.8 0.9090909
vt 0.9 0.8636364
vt 0.9 0.9090909
vt 0 0.4090909
vt 0.05 0.4090909
vt 0.05 0.4545454
vt 0 0.4545454
vt 0.1 0.4090909
vt 0.1 0.4545454
vt 0.15 0.4090909
vt 0.15 0.4545454
vt 0.2 0.4090909
vt 0.2 0.4545454
vt 0.2 0.6818182
vt 0.25 0.6818182
vt 0.25 0.7272727
vt 0.2 0.7272727
vt 0 0.3636364
vt 0.05 0.3636364
vt 0.1 0.3636364
vt 0.15 0.3636364
vt 0.2 0.3636364
vt 0 0.3181818
vt 0.05 0.3181818
vt 0.1 0.3181818
vt 0.15 0.3181818
vt 0.2 0.3181818
vt 0.2 0.8636364
vt 0.25 0.8636364
vt 0.25 0.9090909
vt 0.2 0.9090909
vt 0.3 0.8636364
vt 0.3 0.9090909
vt 0.2 0.8181818
vt 0.25 0.8181818
vt 0.3 0.8181818
vt 0.3 0.6818182
vt 0.3 0.7272727
vt 0.4 0.8636364
vt 0.45 0.8636364
vt 0.45 0.9090909
vt 0.4 0.9090909
vt 0.5 0.8636364
vt 0.5 0.9090909
vt 0.4 0.8181818
vt 0.45 0.8181818
vt 0.5 0.8181818
vt 0.8 0.8181818
vt 0.85 0.8181818
vt 0.9 0.8181818
vt 0.65 0.9545454
vt 0.7 0.9545454
vt 0.7 1
vt 0.65 1
vt 0.7 0.7727273
vt 0.75 0.7727273
vt 0.75 0.8181818
vt 0.7 0.8181818
vt 0.8 0.7727273
vt 0.7 0.7272727
vt 0.75 0.7272727
vt 0.8 0.7272727

# Normal
vn 0 0 -1

# Mesh description
g BarEXT1.1_mesh_0012

# Faces
f 1/1/1 2/2/1 3/3/1 4/4/1
f 5/2/1 6/5/1 7/6/1 8/3/1
f 9/7/1 10/8/1 11/9/1 12/10/1
f 13/8/1 14/11/1 15/12/1 16/9/1
f 17/11/1 18/13/1 19/14/1 20/12/1
f 21/13/1 22/15/1 23/16/1 24/14/1
f 25/17/1 26/18/1 27/19/1 28/20/1
f 29/21/1 30/22/1 31/8/1 32/7/1
f 33/22/1 34/23/1 35/11/1 36/8/1
f 37/23/1 38/24/1 39/13/1 40/11/1
f 41/24/1 42/25/1 43/15/1 44/13/1
f 45/26/1 46/27/1 47/22/1 48/21/1
f 49/27/1 50/28/1 51/23/1 52/22/1
f 53/28/1 54/29/1 55/24/1 56/23/1
f 57/29/1 58/30/1 59/25/1 60/24/1
f 61/31/1 62/32/1 63/33/1 64/34/1
f 65/32/1 66/35/1 67/36/1 68/33/1
f 69/1/1 70/2/1 71/3/1 72/4/1
f 73/2/1 74/5/1 75/6/1 76/3/1
f 77/1/1 78/2/1 79/3/1 80/4/1
f 81/2/1 82/5/1 83/6/1 84/3/1
f 85/1/1 86/2/1 87/3/1 88/4/1
f 89/2/1 90/5/1 91/6/1 92/3/1
f 93/1/1 94/2/1 95/3/1 96/4/1
f 97/2/1 98/5/1 99/6/1 100/3/1
f 101/1/1 102/2/1 103/3/1 104/4/1
f 105/2/1 106/5/1 107/6/1 108/3/1
f 109/1/1 110/2/1 111/3/1 112/4/1
f 113/2/1 114/5/1 115/6/1 116/3/1
f 117/1/1 118/2/1 119/3/1 120/4/1
f 121/2/1 122/5/1 123/6/1 124/3/1
f 125/1/1 126/2/1 127/3/1 128/4/1
f 129/2/1 130/5/1 131/6/1 132/3/1
f 133/1/1 134/2/1 135/3/1 136/4/1
f 137/2/1 138/5/1 139/6/1 140/3/1
f 141/37/1 142/38/1 143/32/1 144/31/1
f 145/38/1 146/39/1 147/35/1 148/32/1
f 149/1/1 150/2/1 151/3/1 152/4/1
f 153/2/1 154/5/1 155/6/1 156/3/1
f 157/1/1 158/2/1 159/3/1 160/4/1
f 161/2/1 162/5/1 163/6/1 164/3/1
f 165/1/1 166/2/1 167/3/1 168/4/1
f 169/2/1 170/5/1 171/6/1 172/3/1
f 173/17/1 174/18/1 175/19/1 176/20/1
f 177/18/1 178/40/1 179/41/1 180/19/1
f 181/17/1 182/18/1 183/19/1 184/20/1
f 185/18/1 186/40/1 187/41/1 188/19/1
f 189/17/1 190/18/1 191/19/1 192/20/1
f 193/17/1 194/18/1 195/19/1 196/20/1
f 197/42/1 198/43/1 199/44/1 200/45/1
f 201/43/1 202/46/1 203/47/1 204/44/1
f 205/48/1 206/49/1 207/43/1 208/42/1
f 209/49/1 210/50/1 211/46/1 212/43/1
f 213/1/1 214/2/1 215/3/1 216/4/1
f 217/2/1 218/5/1 219/6/1 220/3/1
f 221/1/1 222/2/1 223/3/1 224/4/1
f 225/2/1 226/5/1 227/6/1 228/3/1
f 229/1/1 230/2/1 231/3/1 232/4/1
f 233/2/1 234/5/1 235/6/1 236/3/1
f 237/7/1 238/8/1 239/9/1 240/10/1
f 241/8/1 242/11/1 243/12/1 244/9/1
f 245/11/1 246/13/1 247/14/1 248/12/1
f 249/13/1 250/15/1 251/16/1 252/14/1
f 253/51/1 254/52/1 255/2/1 256/1/1
f 257/52/1 258/53/1 259/5/1 260/2/1
f 261/17/1 262/18/1 263/19/1 264/20/1
f 265/21/1 266/22/1 267/8/1 268/7/1
f 269/22/1 270/23/1 271/11/1 272/8/1
f 273/23/1 274/24/1 275/13/1 276/11/1
f 277/24/1 278/25/1 279/15/1 280/13/1
f 281/7/1 282/8/1 283/9/1 284/10/1
f 285/8/1 286/11/1 287/12/1 288/9/1
f 289/11/1 290/13/1 291/14/1 292/12/1
f 293/13/1 294/15/1 295/16/1 296/14/1
f 297/7/1 298/8/1 299/9/1 300/10/1
f 301/8/1 302/11/1 303/12/1 304/9/1
f 305/11/1 306/13/1 307/14/1 308/12/1
f 309/13/1 310/15/1 311/16/1 312/14/1
f 313/7/1 314/8/1 315/9/1 316/10/1
f 317/8/1 318/11/1 319/12/1 320/9/1
f 321/11/1 322/13/1 323/14/1 324/12/1
f 325/13/1 326/15/1 327/16/1 328/14/1
f 329/7/1 330/8/1 331/9/1 332/10/1
f 333/8/1 334/11/1 335/12/1 336/9/1
f 337/11/1 338/13/1 339/14/1 340/12/1
f 341/13/1 342/15/1 343/16/1 344/14/1
f 345/26/1 346/27/1 347/22/1 348/21/1
f 349/27/1 350/28/1 351/23/1 352/22/1
f 353/28/1 354/29/1 355/24/1 356/23/1
f 357/29/1 358/30/1 359/25/1 360/24/1
f 361/54/1 362/55/1 363/56/1 364/57/1
f 365/21/1 366/22/1 367/8/1 368/7/1
f 369/22/1 370/23/1 371/11/1 372/8/1
f 373/23/1 374/24/1 375/13/1 376/11/1
f 377/24/1 378/25/1 379/15/1 380/13/1
f 381/58/1 382/59/1 383/60/1 384/61/1
f 385/59/1 386/62/1 387/51/1 388/60/1
f 389/58/1 390/59/1 391/60/1 392/61/1
f 393/58/1 394/59/1 395/60/1 396/61/1
f 397/58/1 398/59/1 399/60/1 400/61/1
f 401/58/1 402/59/1 403/60/1 404/61/1
f 405/59/1 406/62/1 407/51/1 408/60/1
f 409/58/1 410/59/1 411/60/1 412/61/1
f 413/58/1 414/59/1 415/60/1 416/61/1
f 417/58/1 418/59/1 419/60/1 420/61/1
f 421/59/1 422/62/1 423/51/1 424/60/1
f 425/59/1 426/62/1 427/51/1 428/60/1
f 429/59/1 430/62/1 431/51/1 432/60/1
f 433/59/1 434/62/1 435/51/1 436/60/1
f 437/58/1 438/59/1 439/60/1 440/61/1
f 441/59/1 442/62/1 443/51/1 444/60/1
f 445/21/1 446/22/1 447/8/1 448/7/1
f 449/22/1 450/23/1 451/11/1 452/8/1
f 453/23/1 454/24/1 455/13/1 456/11/1
f 457/24/1 458/25/1 459/15/1 460/13/1
f 461/21/1 462/22/1 463/8/1 464/7/1
f 465/22/1 466/23/1 467/11/1 468/8/1
f 469/23/1 470/24/1 471/13/1 472/11/1
f 473/24/1 474/25/1 475/15/1 476/13/1
f 477/58/1 478/59/1 479/60/1 480/61/1
f 481/58/1 482/59/1 483/60/1 484/61/1
f 485/58/1 486/59/1 487/60/1 488/61/1
f 489/58/1 490/59/1 491/60/1 492/61/1
f 493/58/1 494/59/1 495/60/1 496/61/1
f 497/59/1 498/62/1 499/51/1 500/60/1
f 501/59/1 502/62/1 503/51/1 504/60/1
f 505/21/1 506/22/1 507/8/1 508/7/1
f 509/22/1 510/23/1 511/11/1 512/8/1
f 513/23/1 514/24/1 515/13/1 516/11/1
f 517/24/1 518/25/1 519/15/1 520/13/1
f 521/58/1 522/59/1 523/60/1 524/61/1
f 525/58/1 526/59/1 527/60/1 528/61/1
f 529/58/1 530/59/1 531/60/1 532/61/1
f 533/58/1 534/59/1 535/60/1 536/61/1
f 537/58/1 538/59/1 539/60/1 540/61/1
f 541/58/1 542/59/1 543/60/1 544/61/1
f 545/58/1 546/59/1 547/60/1 548/61/1
f 549/58/1 550/59/1 551/60/1 552/61/1
f 553/58/1 554/59/1 555/60/1 556/61/1
f 557/58/1 558/59/1 559/60/1 560/61/1
f 561/58/1 562/59/1 563/60/1 564/61/1
f 565/58/1 566/59/1 567/60/1 568/61/1
f 569/58/1 570/59/1 571/60/1 572/61/1
f 573/58/1 574/59/1 575/60/1 576/61/1
f 577/59/1 578/62/1 579/51/1 580/60/1
f 581/58/1 582/59/1 583/60/1 584/61/1
f 585/59/1 586/62/1 587/51/1 588/60/1
f 589/58/1 590/59/1 591/60/1 592/61/1
f 593/59/1 594/62/1 595/51/1 596/60/1
f 597/59/1 598/62/1 599/51/1 600/60/1
f 601/59/1 602/62/1 603/51/1 604/60/1
f 605/54/1 606/55/1 607/56/1 608/57/1
f 609/26/1 610/27/1 611/22/1 612/21/1
f 613/27/1 614/28/1 615/23/1 616/22/1
f 617/28/1 618/29/1 619/24/1 620/23/1
f 621/29/1 622/30/1 623/25/1 624/24/1
f 625/58/1 626/59/1 627/60/1 628/61/1
f 629/58/1 630/59/1 631/60/1 632/61/1
f 633/63/1 634/64/1 635/59/1 636/58/1
f 637/63/1 638/64/1 639/59/1 640/58/1
f 641/58/1 642/59/1 643/60/1 644/61/1
f 645/63/1 646/64/1 647/59/1 648/58/1
f 649/64/1 650/65/1 651/62/1 652/59/1
f 653/58/1 654/59/1 655/60/1 656/61/1
f 657/58/1 658/59/1 659/60/1 660/61/1
f 661/58/1 662/59/1 663/60/1 664/61/1
f 665/58/1 666/59/1 667/60/1 668/61/1
f 669/58/1 670/59/1 671/60/1 672/61/1
f 673/58/1 674/59/1 675/60/1 676/61/1
f 677/58/1 678/59/1 679/60/1 680/61/1
f 681/58/1 682/59/1 683/60/1 684/61/1
f 685/59/1 686/62/1 687/51/1 688/60/1
f 689/26/1 690/27/1 691/22/1 692/21/1
f 693/27/1 694/28/1 695/23/1 696/22/1
f 697/28/1 698/29/1 699/24/1 700/23/1
f 701/29/1 702/30/1 703/25/1 704/24/1
f 705/26/1 706/27/1 707/22/1 708/21/1
f 709/27/1 710/28/1 711/23/1 712/22/1
f 713/28/1 714/29/1 715/24/1 716/23/1
f 717/29/1 718/30/1 719/25/1 720/24/1
f 721/63/1 722/64/1 723/59/1 724/58/1
f 725/58/1 726/59/1 727/60/1 728/61/1
f 729/59/1 730/62/1 731/51/1 732/60/1
f 733/59/1 734/62/1 735/51/1 736/60/1
f 737/59/1 738/62/1 739/51/1 740/60/1
f 741/59/1 742/62/1 743/51/1 744/60/1
f 745/64/1 746/65/1 747/62/1 748/59/1
f 749/26/1 750/27/1 751/22/1 752/21/1
f 753/27/1 754/28/1 755/23/1 756/22/1
f 757/28/1 758/29/1 759/24/1 760/23/1
f 761/29/1 762/30/1 763/25/1 764/24/1
f 765/58/1 766/59/1 767/60/1 768/61/1
f 769/59/1 770/62/1 771/51/1 772/60/1
f 773/59/1 774/62/1 775/51/1 776/60/1
f 777/59/1 778/62/1 779/51/1 780/60/1
f 781/59/1 782/62/1 783/51/1 784/60/1
f 785/59/1 786/62/1 787/51/1 788/60/1
f 789/63/1 790/64/1 791/59/1 792/58/1
f 793/63/1 794/64/1 795/59/1 796/58/1
f 797/63/1 798/64/1 799/59/1 800/58/1
f 801/63/1 802/64/1 803/59/1 804/58/1
f 805/63/1 806/64/1 807/59/1 808/58/1
f 809/63/1 810/64/1 811/59/1 812/58/1
f 813/58/1 814/59/1 815/60/1 816/61/1
f 817/59/1 818/62/1 819/51/1 820/60/1
f 821/59/1 822/62/1 823/51/1 824/60/1
f 825/58/1 826/59/1 827/60/1 828/61/1
f 829/58/1 830/59/1 831/60/1 832/61/1
f 833/63/1 834/64/1 835/59/1 836/58/1
f 837/64/1 838/65/1 839/62/1 840/59/1
f 841/64/1 842/65/1 843/62/1 844/59/1
f 845/64/1 846/65/1 847/62/1 848/59/1
f 849/54/1 850/55/1 851/56/1 852/57/1
f 853/63/1 854/64/1 855/59/1 856/58/1
f 857/63/1 858/64/1 859/59/1 860/58/1
f 861/63/1 862/64/1 863/59/1 864/58/1
f 865/64/1 866/65/1 867/62/1 868/59/1
f 869/63/1 870/64/1 871/59/1 872/58/1
f 873/63/1 874/64/1 875/59/1 876/58/1
f 877/64/1 878/65/1 879/62/1 880/59/1
f 881/63/1 882/64/1 883/59/1 884/58/1
f 885/63/1 886/64/1 887/59/1 888/58/1
f 889/63/1 890/64/1 891/59/1 892/58/1
f 893/63/1 894/64/1 895/59/1 896/58/1
f 897/63/1 898/64/1 899/59/1 900/58/1
f 901/63/1 902/64/1 903/59/1 904/58/1
f 905/63/1 906/64/1 907/59/1 908/58/1
f 909/63/1 910/64/1 911/59/1 912/58/1
f 913/64/1 914/65/1 915/62/1 916/59/1
f 917/58/1 918/59/1 919/60/1 920/61/1
f 921/58/1 922/59/1 923/60/1 924/61/1
f 925/58/1 926/59/1 927/60/1 928/61/1
f 929/58/1 930/59/1 931/60/1 932/61/1
f 933/58/1 934/59/1 935/60/1 936/61/1
f 937/58/1 938/59/1 939/60/1 940/61/1
f 941/59/1 942/62/1 943/51/1 944/60/1
f 945/63/1 946/64/1 947/59/1 948/58/1
f 949/64/1 950/65/1 951/62/1 952/59/1
f 953/64/1 954/65/1 955/62/1 956/59/1
f 957/64/1 958/65/1 959/62/1 960/59/1
f 961/64/1 962/65/1 963/62/1 964/59/1
f 965/64/1 966/65/1 967/62/1 968/59/1
f 969/59/1 970/62/1 971/51/1 972/60/1
f 973/59/1 974/62/1 975/51/1 976/60/1
f 977/59/1 978/62/1 979/51/1 980/60/1
f 981/59/1 982/62/1 983/51/1 984/60/1
f 985/59/1 986/62/1 987/51/1 988/60/1
f 989/59/1 990/62/1 991/51/1 992/60/1
f 993/59/1 994/62/1 995/51/1 996/60/1
f 997/59/1 998/62/1 999/51/1 1000/60/1
f 1001/64/1 1002/65/1 1003/62/1 1004/59/1
f 1005/63/1 1006/64/1 1007/59/1 1008/58/1
f 1009/63/1 1010/64/1 1011/59/1 1012/58/1
f 1013/63/1 1014/64/1 1015/59/1 1016/58/1
f 1017/58/1 1018/59/1 1019/60/1 1020/61/1
f 1021/63/1 1022/64/1 1023/59/1 1024/58/1
f 1025/64/1 1026/65/1 1027/62/1 1028/59/1
f 1029/54/1 1030/55/1 1031/56/1 1032/57/1

