# Tiled2Unity generated file. Do not modify by hand.
# Wavefront file for 'BarEXT1.1_mesh_0006.obj'

# Vertices (Count = 16)
v -23 -9 0
v -24 -9 0
v -24 -8 0
v -23 -8 0
v -24 -9 0
v -25 -9 0
v -25 -8 0
v -24 -8 0
v -23 -10 0
v -24 -10 0
v -24 -9 0
v -23 -9 0
v -24 -10 0
v -25 -10 0
v -25 -9 0
v -24 -9 0

# Texture cooridinates (Count = 8)
vt 0 0.8409091
vt 0.08333334 0.8409091
vt 0.08333334 0.8636364
vt 0 0.8636364
vt 0.1666667 0.8409091
vt 0.1666667 0.8636364
vt 0 0.8181818
vt 0.08333334 0.8181818

# Normal
vn 0 0 -1

# Mesh description
g BarEXT1.1_mesh_0006

# Faces
f 1/1/1 2/2/1 3/3/1 4/4/1
f 5/2/1 6/5/1 7/6/1 8/3/1
f 9/7/1 10/8/1 11/2/1 12/1/1
f 13/1/1 14/2/1 15/3/1 16/4/1

